<?xml version="1.0" encoding="UTF-8" standalone="no"?>
<svg
   xmlns:dc="http://purl.org/dc/elements/1.1/"
   xmlns:cc="http://creativecommons.org/ns#"
   xmlns:rdf="http://www.w3.org/1999/02/22-rdf-syntax-ns#"
   xmlns:svg="http://www.w3.org/2000/svg"
   xmlns="http://www.w3.org/2000/svg"
   xmlns:xlink="http://www.w3.org/1999/xlink"
   xmlns:sodipodi="http://sodipodi.sourceforge.net/DTD/sodipodi-0.dtd"
   xmlns:inkscape="http://www.inkscape.org/namespaces/inkscape"
   width="164.62163mm"
   height="121.10892mm"
   viewBox="0 0 164.62163 121.10894"
   version="1.1"
   id="svg8"
   sodipodi:docname="elleiptic-pendulum.svg"
   inkscape:version="1.0.2 (e86c870879, 2021-01-15)">
  <defs
     id="defs2">
    <marker
       style="overflow:visible"
       id="Arrow1Send"
       refX="0"
       refY="0"
       orient="auto"
       inkscape:stockid="Arrow1Send"
       inkscape:isstock="true">
      <path
         transform="matrix(-0.2,0,0,-0.2,-1.2,0)"
         style="fill:#ca4436;fill-opacity:1;fill-rule:evenodd;stroke:#ca4436;stroke-width:1pt;stroke-opacity:1"
         d="M 0,0 5,-5 -12.5,0 5,5 Z"
         id="path864" />
    </marker>
    <marker
       style="overflow:visible"
       id="marker1350"
       refX="0"
       refY="0"
       orient="auto"
       inkscape:stockid="Arrow1Mend"
       inkscape:isstock="true">
      <path
         transform="matrix(-0.4,0,0,-0.4,-4,0)"
         style="fill:#000000;fill-opacity:1;fill-rule:evenodd;stroke:#000000;stroke-width:1pt;stroke-opacity:1"
         d="M 0,0 5,-5 -12.5,0 5,5 Z"
         id="path1348" />
    </marker>
    <marker
       style="overflow:visible"
       id="marker1230"
       refX="0"
       refY="0"
       orient="auto"
       inkscape:stockid="Arrow1Mend"
       inkscape:isstock="true"
       inkscape:collect="always">
      <path
         transform="matrix(-0.4,0,0,-0.4,-4,0)"
         style="fill:#000000;fill-opacity:1;fill-rule:evenodd;stroke:#000000;stroke-width:1pt;stroke-opacity:1"
         d="M 0,0 5,-5 -12.5,0 5,5 Z"
         id="path1228" />
    </marker>
    <marker
       style="overflow:visible"
       id="marker1147"
       refX="0"
       refY="0"
       orient="auto"
       inkscape:stockid="Arrow1Mend"
       inkscape:isstock="true"
       inkscape:collect="always">
      <path
         transform="matrix(-0.4,0,0,-0.4,-4,0)"
         style="fill:#000000;fill-opacity:1;fill-rule:evenodd;stroke:#000000;stroke-width:1pt;stroke-opacity:1"
         d="M 0,0 5,-5 -12.5,0 5,5 Z"
         id="path1145" />
    </marker>
    <marker
       style="overflow:visible"
       id="Arrow1Mend"
       refX="0"
       refY="0"
       orient="auto"
       inkscape:stockid="Arrow1Mend"
       inkscape:isstock="true"
       inkscape:collect="always">
      <path
         transform="matrix(-0.4,0,0,-0.4,-4,0)"
         style="fill:#000000;fill-opacity:1;fill-rule:evenodd;stroke:#000000;stroke-width:1pt;stroke-opacity:1"
         d="M 0,0 5,-5 -12.5,0 5,5 Z"
         id="path858" />
    </marker>
    <g
       id="g4182">
      <symbol
         overflow="visible"
         id="symbol5550">
        <path
           style="stroke:none"
           d=""
           id="path4857" />
      </symbol>
      <symbol
         overflow="visible"
         id="symbol5984">
        <path
           style="stroke:none"
           d="m 4.671875,-3.703125 c 0,-0.546875 -0.265625,-0.703125 -0.4375,-0.703125 -0.25,0 -0.5,0.265625 -0.5,0.484375 0,0.125 0.046875,0.1875 0.15625,0.296875 0.21875,0.203125 0.34375,0.453125 0.34375,0.8125 0,0.421875 -0.609375,2.703125 -1.765625,2.703125 -0.515625,0 -0.75,-0.34375 -0.75,-0.875 0,-0.546875 0.28125,-1.28125 0.578125,-2.109375 0.078125,-0.171875 0.125,-0.3125 0.125,-0.5 0,-0.4375 -0.3125,-0.8125 -0.8125,-0.8125 -0.9375,0 -1.3125,1.453125 -1.3125,1.53125 0,0.109375 0.09375,0.109375 0.109375,0.109375 0.109375,0 0.109375,-0.03125 0.15625,-0.1875 0.296875,-1 0.71875,-1.234375 1.015625,-1.234375 0.078125,0 0.25,0 0.25,0.3125 0,0.25 -0.109375,0.53125 -0.171875,0.703125 -0.4375,1.15625 -0.5625,1.609375 -0.5625,2.046875 0,1.078125 0.875,1.234375 1.328125,1.234375 1.671875,0 2.25,-3.296875 2.25,-3.8125 z m 0,0"
           id="path8655" />
      </symbol>
      <symbol
         overflow="visible"
         id="symbol5883">
        <path
           style="stroke:none"
           d="M 3.71875,-3.765625 C 3.53125,-4.140625 3.25,-4.40625 2.796875,-4.40625 c -1.15625,0 -2.390625,1.46875 -2.390625,2.921875 0,0.9375 0.546875,1.59375 1.3125,1.59375 0.203125,0 0.703125,-0.046875 1.296875,-0.75 0.078125,0.421875 0.4375,0.75 0.90625,0.75 0.359375,0 0.578125,-0.234375 0.75,-0.546875 0.15625,-0.359375 0.296875,-0.96875 0.296875,-0.984375 0,-0.109375 -0.09375,-0.109375 -0.125,-0.109375 -0.09375,0 -0.109375,0.046875 -0.140625,0.1875 -0.171875,0.640625 -0.34375,1.234375 -0.75,1.234375 -0.28125,0 -0.296875,-0.265625 -0.296875,-0.453125 0,-0.21875 0.015625,-0.3125 0.125,-0.75 C 3.890625,-1.71875 3.90625,-1.828125 4,-2.203125 L 4.359375,-3.59375 c 0.0625,-0.28125 0.0625,-0.296875 0.0625,-0.34375 0,-0.171875 -0.109375,-0.265625 -0.28125,-0.265625 -0.25,0 -0.390625,0.21875 -0.421875,0.4375 z M 3.078125,-1.1875 C 3.015625,-1 3.015625,-0.984375 2.875,-0.8125 2.4375,-0.265625 2.03125,-0.109375 1.75,-0.109375 c -0.5,0 -0.640625,-0.546875 -0.640625,-0.9375 0,-0.5 0.3125,-1.71875 0.546875,-2.1875 0.3125,-0.578125 0.75,-0.953125 1.15625,-0.953125 0.640625,0 0.78125,0.8125 0.78125,0.875 0,0.0625 -0.015625,0.125 -0.03125,0.171875 z m 0,0"
           id="path184" />
      </symbol>
      <symbol
         overflow="visible"
         id="symbol4754">
        <path
           style="stroke:none"
           d="m 0.875,-0.59375 c -0.03125,0.15625 -0.09375,0.390625 -0.09375,0.4375 0,0.171875 0.140625,0.265625 0.296875,0.265625 0.125,0 0.296875,-0.078125 0.375,-0.28125 C 1.46875,-0.203125 1.796875,-1.5625 1.84375,-1.75 c 0.078125,-0.328125 0.265625,-1.015625 0.3125,-1.296875 0.046875,-0.125 0.328125,-0.59375 0.5625,-0.8125 0.078125,-0.0625 0.375,-0.328125 0.796875,-0.328125 0.265625,0 0.40625,0.125 0.421875,0.125 -0.296875,0.046875 -0.515625,0.28125 -0.515625,0.546875 0,0.15625 0.109375,0.34375 0.375,0.34375 0.265625,0 0.546875,-0.234375 0.546875,-0.59375 0,-0.34375 -0.3125,-0.640625 -0.828125,-0.640625 C 2.875,-4.40625 2.4375,-3.921875 2.25,-3.640625 2.15625,-4.09375 1.796875,-4.40625 1.328125,-4.40625 0.875,-4.40625 0.6875,-4.015625 0.59375,-3.84375 0.421875,-3.5 0.296875,-2.90625 0.296875,-2.875 c 0,0.109375 0.09375,0.109375 0.109375,0.109375 0.109375,0 0.109375,-0.015625 0.171875,-0.234375 0.171875,-0.703125 0.375,-1.1875 0.734375,-1.1875 0.15625,0 0.296875,0.078125 0.296875,0.453125 0,0.21875 -0.03125,0.328125 -0.15625,0.84375 z m 0,0"
           id="path3958" />
      </symbol>
      <symbol
         overflow="visible"
         id="symbol5662">
        <path
           style="stroke:none"
           d="M 0.453125,1.21875 C 0.375,1.5625 0.34375,1.625 -0.09375,1.625 c -0.109375,0 -0.21875,0 -0.21875,0.1875 0,0.078125 0.046875,0.125 0.125,0.125 0.265625,0 0.5625,-0.03125 0.828125,-0.03125 0.34375,0 0.671875,0.03125 1,0.03125 0.046875,0 0.171875,0 0.171875,-0.203125 C 1.8125,1.625 1.71875,1.625 1.578125,1.625 c -0.5,0 -0.5,-0.0625 -0.5,-0.15625 0,-0.125 0.421875,-1.75 0.484375,-2 0.125,0.296875 0.40625,0.640625 0.921875,0.640625 1.15625,0 2.40625,-1.453125 2.40625,-2.921875 0,-0.9375 -0.578125,-1.59375 -1.328125,-1.59375 -0.5,0 -0.984375,0.359375 -1.3125,0.75 -0.09375,-0.546875 -0.53125,-0.75 -0.890625,-0.75 -0.46875,0 -0.65625,0.390625 -0.734375,0.5625 C 0.4375,-3.5 0.3125,-2.90625 0.3125,-2.875 c 0,0.109375 0.09375,0.109375 0.109375,0.109375 0.109375,0 0.109375,-0.015625 0.171875,-0.234375 0.171875,-0.703125 0.375,-1.1875 0.734375,-1.1875 0.171875,0 0.3125,0.078125 0.3125,0.453125 0,0.234375 -0.03125,0.34375 -0.078125,0.515625 z m 1.75,-4.328125 C 2.265625,-3.375 2.546875,-3.65625 2.71875,-3.8125 c 0.359375,-0.296875 0.640625,-0.375 0.8125,-0.375 0.390625,0 0.640625,0.34375 0.640625,0.9375 0,0.59375 -0.328125,1.734375 -0.515625,2.109375 -0.34375,0.703125 -0.8125,1.03125 -1.1875,1.03125 C 1.8125,-0.109375 1.6875,-0.9375 1.6875,-1 c 0,-0.015625 0,-0.03125 0.03125,-0.15625 z m 0,0"
           id="path4375" />
      </symbol>
      <symbol
         overflow="visible"
         id="symbol2706">
        <path
           style="stroke:none"
           d="m 2.859375,-6.8125 c 0,0 0,-0.109375 -0.125,-0.109375 -0.234375,0 -0.953125,0.078125 -1.21875,0.109375 -0.078125,0 -0.1875,0.015625 -0.1875,0.1875 0,0.125 0.09375,0.125 0.234375,0.125 0.484375,0 0.5,0.0625 0.5,0.171875 L 2.03125,-6.125 0.59375,-0.390625 c -0.046875,0.140625 -0.046875,0.15625 -0.046875,0.21875 0,0.234375 0.203125,0.28125 0.296875,0.28125 0.15625,0 0.3125,-0.125 0.359375,-0.265625 l 0.1875,-0.75 0.21875,-0.890625 C 1.671875,-2.03125 1.734375,-2.25 1.78125,-2.46875 1.796875,-2.53125 1.890625,-2.859375 1.890625,-2.921875 1.921875,-3.015625 2.234375,-3.5625 2.578125,-3.84375 2.796875,-4 3.09375,-4.1875 3.53125,-4.1875 c 0.421875,0 0.53125,0.34375 0.53125,0.703125 0,0.53125 -0.375,1.625 -0.609375,2.234375 C 3.375,-1.03125 3.3125,-0.90625 3.3125,-0.703125 c 0,0.46875 0.359375,0.8125 0.828125,0.8125 0.9375,0 1.296875,-1.453125 1.296875,-1.53125 0,-0.109375 -0.078125,-0.109375 -0.109375,-0.109375 -0.109375,0 -0.109375,0.03125 -0.15625,0.1875 -0.140625,0.53125 -0.46875,1.234375 -1.015625,1.234375 -0.171875,0 -0.234375,-0.09375 -0.234375,-0.328125 0,-0.25 0.078125,-0.484375 0.171875,-0.703125 0.15625,-0.4375 0.609375,-1.625 0.609375,-2.203125 0,-0.640625 -0.390625,-1.0625 -1.140625,-1.0625 -0.625,0 -1.109375,0.3125 -1.484375,0.765625 z m 0,0"
           id="path202" />
      </symbol>
      <symbol
         overflow="visible"
         id="symbol72">
        <path
           style="stroke:none"
           d="m 2.828125,-6.234375 c 0,-0.203125 -0.140625,-0.359375 -0.359375,-0.359375 -0.28125,0 -0.546875,0.265625 -0.546875,0.53125 0,0.1875 0.140625,0.359375 0.375,0.359375 0.234375,0 0.53125,-0.234375 0.53125,-0.53125 z m -0.75,3.75 c 0.109375,-0.28125 0.109375,-0.3125 0.21875,-0.578125 0.078125,-0.203125 0.125,-0.34375 0.125,-0.53125 0,-0.4375 -0.3125,-0.8125 -0.8125,-0.8125 -0.9375,0 -1.3125,1.453125 -1.3125,1.53125 0,0.109375 0.09375,0.109375 0.109375,0.109375 0.109375,0 0.109375,-0.03125 0.15625,-0.1875 0.28125,-0.9375 0.671875,-1.234375 1.015625,-1.234375 0.078125,0 0.25,0 0.25,0.3125 0,0.21875 -0.078125,0.421875 -0.109375,0.53125 -0.078125,0.25 -0.53125,1.40625 -0.6875,1.84375 -0.109375,0.25 -0.234375,0.578125 -0.234375,0.796875 0,0.46875 0.34375,0.8125 0.8125,0.8125 0.9375,0 1.3125,-1.4375 1.3125,-1.53125 0,-0.109375 -0.09375,-0.109375 -0.125,-0.109375 -0.09375,0 -0.09375,0.03125 -0.140625,0.1875 -0.1875,0.625 -0.515625,1.234375 -1.015625,1.234375 -0.171875,0 -0.25,-0.09375 -0.25,-0.328125 0,-0.25 0.0625,-0.390625 0.296875,-1 z m 0,0"
           id="path4321" />
      </symbol>
    </g>
    <g
       id="g3088">
      <symbol
         overflow="visible"
         id="symbol6016">
        <path
           style="stroke:none"
           d=""
           id="path2970" />
      </symbol>
      <symbol
         overflow="visible"
         id="symbol237">
        <path
           style="stroke:none"
           d="M 1.6875,1.6875 C 1.65625,1.828125 1.640625,1.84375 1.640625,1.890625 c 0,0.21875 0.1875,0.28125 0.296875,0.28125 0.046875,0 0.265625,-0.03125 0.359375,-0.265625 C 2.328125,1.828125 2.375,1.5 2.65625,0.09375 c 0.078125,0 0.15625,0.015625 0.328125,0.015625 1.65625,0 3.1875,-1.5625 3.1875,-3.140625 0,-0.78125 -0.390625,-1.375 -1.140625,-1.375 -1.4375,0 -2.046875,1.9375 -2.640625,3.875 C 1.3125,-0.734375 0.75,-1.28125 0.75,-2 c 0,-0.28125 0.234375,-1.375 0.828125,-2.0625 0.09375,-0.09375 0.09375,-0.109375 0.09375,-0.140625 0,-0.03125 -0.03125,-0.09375 -0.125,-0.09375 -0.28125,0 -1.046875,1.453125 -1.046875,2.40625 0,0.9375 0.65625,1.65625 1.71875,1.90625 z m 1.390625,-2.15625 c -0.09375,0 -0.109375,0 -0.1875,-0.015625 -0.125,0 -0.125,0 -0.125,-0.03125 0,-0.015625 0.171875,-0.9375 0.1875,-1.078125 0.3125,-1.28125 1.09375,-2.234375 1.984375,-2.234375 0.6875,0 0.953125,0.53125 0.953125,1.015625 0,1.125 -1.28125,2.34375 -2.8125,2.34375 z m 0,0"
           id="path4156" />
      </symbol>
    </g>
  </defs>
  <sodipodi:namedview
     id="base"
     pagecolor="#ffffff"
     bordercolor="#666666"
     borderopacity="1.0"
     inkscape:pageopacity="1"
     inkscape:pageshadow="2"
     inkscape:zoom="1.2966162"
     inkscape:cx="306.00753"
     inkscape:cy="190.21977"
     inkscape:document-units="mm"
     inkscape:current-layer="layer1"
     inkscape:document-rotation="0"
     showgrid="false"
     inkscape:window-width="2400"
     inkscape:window-height="1301"
     inkscape:window-x="0"
     inkscape:window-y="25"
     inkscape:window-maximized="1"
     fit-margin-top="5"
     fit-margin-left="5"
     fit-margin-right="5"
     fit-margin-bottom="5"
     lock-margins="true" />
  <metadata
     id="metadata5">
    <rdf:RDF>
      <cc:Work
         rdf:about="">
        <dc:format>image/svg+xml</dc:format>
        <dc:type
           rdf:resource="http://purl.org/dc/dcmitype/StillImage" />
        <dc:title></dc:title>
      </cc:Work>
    </rdf:RDF>
  </metadata>
  <g
     inkscape:label="Layer 1"
     inkscape:groupmode="layer"
     id="layer1"
     transform="translate(-20.858327,-31.008256)">
    <path
       style="fill:none;stroke:#000000;stroke-width:0.3;stroke-linecap:butt;stroke-linejoin:miter;stroke-miterlimit:4;stroke-dasharray:none;stroke-opacity:1;marker-end:url(#marker1147)"
       d="M 25.858327,49.71213 H 175.72972"
       id="path833"
       inkscape:export-filename="/home/vadim/Documents/Projects/myblog/assets/img/matlab/elliptic_pendulum.png"
       inkscape:export-xdpi="164.27"
       inkscape:export-ydpi="164.27" />
    <rect
       style="fill:#9cbd86;stroke:#9cbd86;stroke-width:1;stroke-linecap:round;stroke-linejoin:round"
       id="rect835"
       width="27.929667"
       height="16.503893"
       x="77.441345"
       y="41.44931"
       inkscape:export-filename="/home/vadim/Documents/Projects/myblog/assets/img/matlab/elliptic_pendulum.png"
       inkscape:export-xdpi="164.27"
       inkscape:export-ydpi="164.27" />
    <circle
       style="fill:#ffffff;stroke:#000000;stroke-width:0.3;stroke-linecap:round;stroke-linejoin:round;stroke-miterlimit:4;stroke-dasharray:none"
       id="path837"
       cx="91.272552"
       cy="49.645313"
       r="1.8040693"
       inkscape:export-filename="/home/vadim/Documents/Projects/myblog/assets/img/matlab/elliptic_pendulum.png"
       inkscape:export-xdpi="164.27"
       inkscape:export-ydpi="164.27" />
    <path
       style="fill:none;stroke:#000000;stroke-width:0.3;stroke-linecap:round;stroke-linejoin:round;stroke-miterlimit:4;stroke-dasharray:none"
       id="circle839"
       sodipodi:type="arc"
       sodipodi:cx="91.272552"
       sodipodi:cy="49.645313"
       sodipodi:rx="2.6060171"
       sodipodi:ry="2.6060171"
       sodipodi:start="5.4979029"
       sodipodi:end="3.8127663"
       sodipodi:arc-type="arc"
       d="m 93.115498,47.802794 a 2.6060171,2.6060171 0 0 1 0.06846,3.613919 2.6060171,2.6060171 0 0 1 -3.608685,0.206115 2.6060171,2.6060171 0 0 1 -0.343471,-3.598211"
       sodipodi:open="true"
       inkscape:export-filename="/home/vadim/Documents/Projects/myblog/assets/img/matlab/elliptic_pendulum.png"
       inkscape:export-xdpi="164.27"
       inkscape:export-ydpi="164.27" />
    <path
       style="fill:none;stroke:#000000;stroke-width:0.4;stroke-linecap:butt;stroke-linejoin:miter;stroke-miterlimit:4;stroke-dasharray:none;stroke-opacity:1"
       d="M 92.608891,51.850287 123.74579,118.19995"
       id="path841"
       inkscape:export-filename="/home/vadim/Documents/Projects/myblog/assets/img/matlab/elliptic_pendulum.png"
       inkscape:export-xdpi="164.27"
       inkscape:export-ydpi="164.27" />
    <circle
       style="fill:#9cbd86;stroke:#000000;stroke-width:0.3;stroke-linecap:round;stroke-linejoin:round;stroke-miterlimit:4;stroke-dasharray:none"
       id="path843"
       cx="125.28259"
       cy="120.80582"
       r="3.1404169"
       inkscape:export-filename="/home/vadim/Documents/Projects/myblog/assets/img/matlab/elliptic_pendulum.png"
       inkscape:export-xdpi="164.27"
       inkscape:export-ydpi="164.27" />
    <path
       style="fill:none;stroke:#000000;stroke-width:0.264583;stroke-linecap:butt;stroke-linejoin:miter;stroke-miterlimit:4;stroke-dasharray:1.05833, 1.05833;stroke-dashoffset:0;stroke-opacity:1"
       d="m 91.205725,52.85255 v 75.10273"
       id="path845"
       inkscape:export-filename="/home/vadim/Documents/Projects/myblog/assets/img/matlab/elliptic_pendulum.png"
       inkscape:export-xdpi="164.27"
       inkscape:export-ydpi="164.27" />
    <path
       style="fill:none;stroke:#000000;stroke-width:0.3;stroke-linecap:butt;stroke-linejoin:miter;stroke-miterlimit:4;stroke-dasharray:none;stroke-opacity:1;marker-end:url(#Arrow1Mend)"
       d="m 46.805578,39.14669 v 80.89074"
       id="path847"
       sodipodi:nodetypes="cc"
       inkscape:export-filename="/home/vadim/Documents/Projects/myblog/assets/img/matlab/elliptic_pendulum.png"
       inkscape:export-xdpi="164.27"
       inkscape:export-ydpi="164.27" />
    <path
       style="fill:none;stroke:#000000;stroke-width:0.264583px;stroke-linecap:butt;stroke-linejoin:miter;stroke-opacity:1"
       d="m 27.061041,45.101732 1.186328,4.427445"
       id="path1131"
       inkscape:export-filename="/home/vadim/Documents/Projects/myblog/assets/img/matlab/elliptic_pendulum.png"
       inkscape:export-xdpi="164.27"
       inkscape:export-ydpi="164.27" />
    <path
       style="fill:none;stroke:#000000;stroke-width:0.264583px;stroke-linecap:butt;stroke-linejoin:miter;stroke-opacity:1"
       d="m 29.800554,45.101732 1.186328,4.427445"
       id="path1133"
       inkscape:export-filename="/home/vadim/Documents/Projects/myblog/assets/img/matlab/elliptic_pendulum.png"
       inkscape:export-xdpi="164.27"
       inkscape:export-ydpi="164.27" />
    <path
       style="fill:none;stroke:#000000;stroke-width:0.264583px;stroke-linecap:butt;stroke-linejoin:miter;stroke-opacity:1"
       d="m 32.606884,45.101732 1.186328,4.427445"
       id="path1135"
       inkscape:export-filename="/home/vadim/Documents/Projects/myblog/assets/img/matlab/elliptic_pendulum.png"
       inkscape:export-xdpi="164.27"
       inkscape:export-ydpi="164.27" />
    <path
       style="fill:none;stroke:#000000;stroke-width:0.264583px;stroke-linecap:butt;stroke-linejoin:miter;stroke-opacity:1"
       d="m 35.346397,45.101732 1.186328,4.427445"
       id="path1137"
       inkscape:export-filename="/home/vadim/Documents/Projects/myblog/assets/img/matlab/elliptic_pendulum.png"
       inkscape:export-xdpi="164.27"
       inkscape:export-ydpi="164.27" />
    <text
       xml:space="preserve"
       style="font-style:normal;font-variant:normal;font-weight:normal;font-stretch:normal;font-size:4.93825px;line-height:1.25;font-family:Roboto;-inkscape-font-specification:Roboto;letter-spacing:0px;word-spacing:0px;fill:#000000;fill-opacity:1;stroke:none;stroke-width:0.123456"
       x="41.783115"
       y="54.417122"
       id="text1181"
       inkscape:export-filename="/home/vadim/Documents/Projects/myblog/assets/img/matlab/elliptic_pendulum.png"
       inkscape:export-xdpi="164.27"
       inkscape:export-ydpi="164.27"><tspan
         sodipodi:role="line"
         id="tspan1179"
         x="41.783115"
         y="54.417122"
         style="font-style:italic;stroke-width:0.123456">O</tspan></text>
    <text
       xml:space="preserve"
       style="font-style:normal;font-variant:normal;font-weight:normal;font-stretch:normal;font-size:4.93825px;line-height:1.25;font-family:Roboto;-inkscape-font-specification:Roboto;letter-spacing:0px;word-spacing:0px;fill:#000000;fill-opacity:1;stroke:none;stroke-width:0.123456"
       x="90.222084"
       y="46.272278"
       id="text1185"
       inkscape:export-filename="/home/vadim/Documents/Projects/myblog/assets/img/matlab/elliptic_pendulum.png"
       inkscape:export-xdpi="164.27"
       inkscape:export-ydpi="164.27"><tspan
         sodipodi:role="line"
         id="tspan1183"
         x="90.222084"
         y="46.272278"
         style="font-style:italic;stroke-width:0.123456">A</tspan></text>
    <circle
       style="fill:#ffffff;stroke:#000000;stroke-width:0.146127;stroke-linecap:round;stroke-linejoin:round;stroke-miterlimit:4;stroke-dasharray:none"
       id="circle1187"
       cx="46.772175"
       cy="49.645313"
       r="0.87874496"
       inkscape:export-filename="/home/vadim/Documents/Projects/myblog/assets/img/matlab/elliptic_pendulum.png"
       inkscape:export-xdpi="164.27"
       inkscape:export-ydpi="164.27" />
    <text
       xml:space="preserve"
       style="font-style:normal;font-variant:normal;font-weight:normal;font-stretch:normal;font-size:5.05602px;line-height:1.25;font-family:Roboto;-inkscape-font-specification:Roboto;letter-spacing:0px;word-spacing:0px;fill:#000000;fill-opacity:1;stroke:none;stroke-width:0.126401"
       x="88.801781"
       y="38.729099"
       id="text1191"
       inkscape:export-filename="/home/vadim/Documents/Projects/myblog/assets/img/matlab/elliptic_pendulum.png"
       inkscape:export-xdpi="164.27"
       inkscape:export-ydpi="164.27"><tspan
         sodipodi:role="line"
         id="tspan1189"
         x="88.801781"
         y="38.729099"
         style="stroke-width:0.126401"><tspan
           style="font-style:italic;stroke-width:0.126401"
           id="tspan1195">m</tspan><tspan
           style="font-size:3.28641px;baseline-shift:sub;stroke-width:0.126401"
           id="tspan1193">1</tspan></tspan></text>
    <text
       xml:space="preserve"
       style="font-style:normal;font-variant:normal;font-weight:normal;font-stretch:normal;font-size:5.05602px;line-height:1.25;font-family:Roboto;-inkscape-font-specification:Roboto;letter-spacing:0px;word-spacing:0px;fill:#000000;fill-opacity:1;stroke:none;stroke-width:0.126401"
       x="114.77839"
       y="121.51664"
       id="text1203"
       inkscape:export-filename="/home/vadim/Documents/Projects/myblog/assets/img/matlab/elliptic_pendulum.png"
       inkscape:export-xdpi="164.27"
       inkscape:export-ydpi="164.27"><tspan
         sodipodi:role="line"
         id="tspan1201"
         x="114.77839"
         y="121.51664"
         style="font-style:italic;stroke-width:0.126401">m<tspan
   style="font-size:3.28642px;baseline-shift:sub;stroke-width:0.126401"
   id="tspan1205">2</tspan></tspan></text>
    <text
       xml:space="preserve"
       style="font-style:normal;font-variant:normal;font-weight:normal;font-stretch:normal;font-size:6.13597px;line-height:1.25;font-family:Roboto;-inkscape-font-specification:Roboto;letter-spacing:0px;word-spacing:0px;fill:#000000;fill-opacity:1;stroke:none;stroke-width:0.1534"
       x="41.388454"
       y="123.70544"
       id="text1210"
       inkscape:export-filename="/home/vadim/Documents/Projects/myblog/assets/img/matlab/elliptic_pendulum.png"
       inkscape:export-xdpi="164.27"
       inkscape:export-ydpi="164.27"><tspan
         sodipodi:role="line"
         id="tspan1208"
         x="41.388454"
         y="123.70544"
         style="font-style:italic;stroke-width:0.1534">y<tspan
   style="font-size:65%;baseline-shift:sub"
   id="tspan1218">0</tspan></tspan></text>
    <text
       xml:space="preserve"
       style="font-style:normal;font-variant:normal;font-weight:normal;font-stretch:normal;font-size:6.13597px;line-height:1.25;font-family:Roboto;-inkscape-font-specification:Roboto;letter-spacing:0px;word-spacing:0px;fill:#000000;fill-opacity:1;stroke:none;stroke-width:0.1534"
       x="175.47551"
       y="46.692787"
       id="text1214"
       inkscape:export-filename="/home/vadim/Documents/Projects/myblog/assets/img/matlab/elliptic_pendulum.png"
       inkscape:export-xdpi="164.27"
       inkscape:export-ydpi="164.27"><tspan
         sodipodi:role="line"
         id="tspan1212"
         x="175.47551"
         y="46.692787"
         style="font-style:italic;stroke-width:0.1534">x<tspan
   style="font-size:65%;baseline-shift:sub"
   id="tspan1216">0</tspan></tspan></text>
    <path
       style="fill:none;stroke:#000000;stroke-width:0.2;stroke-linecap:butt;stroke-linejoin:miter;stroke-miterlimit:4;stroke-dasharray:none;stroke-opacity:1;marker-end:url(#marker1230)"
       d="M 46.774552,74.744791 H 90.336308"
       id="path1220"
       inkscape:export-filename="/home/vadim/Documents/Projects/myblog/assets/img/matlab/elliptic_pendulum.png"
       inkscape:export-xdpi="164.27"
       inkscape:export-ydpi="164.27" />
    <text
       xml:space="preserve"
       style="font-style:normal;font-variant:normal;font-weight:normal;font-stretch:normal;font-size:5.05602px;line-height:1.25;font-family:Roboto;-inkscape-font-specification:Roboto;letter-spacing:0px;word-spacing:0px;fill:#000000;fill-opacity:1;stroke:none;stroke-width:0.126401"
       x="67.729607"
       y="73.408417"
       id="text1274"
       inkscape:export-filename="/home/vadim/Documents/Projects/myblog/assets/img/matlab/elliptic_pendulum.png"
       inkscape:export-xdpi="164.27"
       inkscape:export-ydpi="164.27"><tspan
         sodipodi:role="line"
         id="tspan1272"
         x="67.729607"
         y="73.408417"
         style="stroke-width:0.126401"><tspan
           style="font-style:italic;stroke-width:0.126401"
           id="tspan1268">x</tspan><tspan
           style="font-size:3.28641px;baseline-shift:sub;stroke-width:0.126401"
           id="tspan1270" /></tspan></text>
    <path
       style="fill:none;stroke:#000000;stroke-width:0.2;stroke-linecap:round;stroke-linejoin:round;stroke-miterlimit:4;stroke-dasharray:none;stroke-dashoffset:0;marker-end:url(#marker1350)"
       id="path1276"
       sodipodi:type="arc"
       sodipodi:cx="-90.859535"
       sodipodi:cy="49.69268"
       sodipodi:rx="48.675629"
       sodipodi:ry="48.675629"
       sodipodi:start="1.5964333"
       sodipodi:end="1.9965487"
       sodipodi:open="true"
       sodipodi:arc-type="arc"
       d="M -92.107294,98.352314 A 48.675629,48.675629 0 0 1 -110.96287,94.022951"
       transform="scale(-1,1)"
       inkscape:export-filename="/home/vadim/Documents/Projects/myblog/assets/img/matlab/elliptic_pendulum.png"
       inkscape:export-xdpi="164.27"
       inkscape:export-ydpi="164.27" />
    <g
       inkscape:label=""
       transform="matrix(0.61214795,0,0,0.61214795,43.79112,51.270852)"
       id="g1615"
       inkscape:export-filename="/home/vadim/Documents/Projects/myblog/assets/img/matlab/elliptic_pendulum.png"
       inkscape:export-xdpi="164.27"
       inkscape:export-ydpi="164.27">
      <g
         id="g5167">
        <g
           style="fill:#000000;fill-opacity:1"
           id="g3520">
          <use
             xlink:href="#symbol237"
             x="91.925003"
             y="81.962997"
             id="use8262"
             width="100%"
             height="100%" />
        </g>
      </g>
    </g>
    <path
       style="fill:none;stroke:#ca4436;stroke-width:1;stroke-linecap:butt;stroke-linejoin:miter;stroke-miterlimit:4;stroke-dasharray:none;stroke-opacity:1;marker-end:url(#Arrow1Send)"
       d="m 125.29911,125.20461 v 20.12723"
       id="path1632"
       inkscape:export-filename="/home/vadim/Documents/Projects/myblog/assets/img/matlab/elliptic_pendulum.png"
       inkscape:export-xdpi="164.27"
       inkscape:export-ydpi="164.27" />
    <text
       xml:space="preserve"
       style="font-style:normal;font-variant:normal;font-weight:normal;font-stretch:normal;font-size:5.05602px;line-height:1.25;font-family:Roboto;-inkscape-font-specification:Roboto;letter-spacing:0px;word-spacing:0px;fill:#000000;fill-opacity:1;stroke:none;stroke-width:0.126401"
       x="128.41568"
       y="145.9928"
       id="text1700"
       inkscape:export-filename="/home/vadim/Documents/Projects/myblog/assets/img/matlab/elliptic_pendulum.png"
       inkscape:export-xdpi="164.27"
       inkscape:export-ydpi="164.27"><tspan
         sodipodi:role="line"
         id="tspan1698"
         x="128.41568"
         y="145.9928"
         style="font-style:italic;stroke-width:0.126401">m<tspan
   style="font-size:65%;baseline-shift:sub"
   id="tspan1704">2 </tspan><tspan
   style="font-weight:bold"
   id="tspan1706">g</tspan></tspan></text>
    <text
       xml:space="preserve"
       style="font-style:normal;font-variant:normal;font-weight:normal;font-stretch:normal;font-size:4.93825px;line-height:1.25;font-family:Roboto;-inkscape-font-specification:Roboto;letter-spacing:0px;word-spacing:0px;fill:#000000;fill-opacity:1;stroke:none;stroke-width:0.123456"
       x="130.1526"
       y="119.69183"
       id="text1185-3"
       inkscape:export-filename="/home/vadim/Documents/Projects/myblog/assets/img/matlab/elliptic_pendulum.png"
       inkscape:export-xdpi="164.27"
       inkscape:export-ydpi="164.27"><tspan
         sodipodi:role="line"
         id="tspan1183-6"
         x="130.1526"
         y="119.69183"
         style="font-style:italic;stroke-width:0.123456">B</tspan></text>
  </g>
</svg>
