<?xml version="1.0" encoding="UTF-8" standalone="no"?>
<!-- Created with Inkscape (http://www.inkscape.org/) -->

<svg
   width="147.53207mm"
   height="102.63164mm"
   viewBox="0 0 147.53208 102.63164"
   version="1.1"
   id="svg5"
   sodipodi:docname="pool.svg"
   inkscape:export-filename="pool.png"
   inkscape:export-xdpi="206.59914"
   inkscape:export-ydpi="206.59914"
   inkscape:version="1.2.2 (b0a8486541, 2022-12-01)"
   xmlns:inkscape="http://www.inkscape.org/namespaces/inkscape"
   xmlns:sodipodi="http://sodipodi.sourceforge.net/DTD/sodipodi-0.dtd"
   xmlns="http://www.w3.org/2000/svg"
   xmlns:svg="http://www.w3.org/2000/svg">
  <sodipodi:namedview
     id="namedview7"
     pagecolor="#ffffff"
     bordercolor="#666666"
     borderopacity="1.0"
     inkscape:showpageshadow="2"
     inkscape:pageopacity="0.0"
     inkscape:pagecheckerboard="0"
     inkscape:deskcolor="#d1d1d1"
     inkscape:document-units="mm"
     showgrid="false"
     inkscape:zoom="1.6819304"
     inkscape:cx="206.31056"
     inkscape:cy="231.87642"
     inkscape:window-width="2400"
     inkscape:window-height="1284"
     inkscape:window-x="0"
     inkscape:window-y="29"
     inkscape:window-maximized="1"
     inkscape:current-layer="layer1" />
  <defs
     id="defs2">
    <inkscape:path-effect
       effect="spiro"
       id="path-effect24439"
       is_visible="true"
       lpeversion="1" />
    <inkscape:path-effect
       effect="simplify"
       id="path-effect24435"
       is_visible="true"
       lpeversion="1"
       steps="1"
       threshold="0.00569231"
       smooth_angles="360"
       helper_size="0"
       simplify_individual_paths="false"
       simplify_just_coalesce="false" />
    <inkscape:path-effect
       effect="spiro"
       id="path-effect21042"
       is_visible="true"
       lpeversion="1" />
    <inkscape:path-effect
       effect="simplify"
       id="path-effect21040"
       is_visible="true"
       lpeversion="1"
       steps="1"
       threshold="0.00569231"
       smooth_angles="360"
       helper_size="0"
       simplify_individual_paths="false"
       simplify_just_coalesce="false" />
    <marker
       style="overflow:visible"
       id="Arrow2"
       refX="0"
       refY="0"
       orient="auto-start-reverse"
       inkscape:stockid="Arrow2"
       markerWidth="7.6999998"
       markerHeight="5.5999999"
       viewBox="0 0 7.7 5.6"
       inkscape:isstock="true"
       inkscape:collect="always"
       preserveAspectRatio="xMidYMid">
      <path
         transform="scale(0.7)"
         d="M -2,-4 9,0 -2,4 c 2,-2.33 2,-5.66 0,-8 z"
         style="fill:context-stroke;fill-rule:evenodd;stroke:none"
         id="arrow2L" />
    </marker>
    <inkscape:path-effect
       effect="spiro"
       id="path-effect4152"
       is_visible="true"
       lpeversion="1" />
    <inkscape:path-effect
       effect="simplify"
       id="path-effect4150"
       is_visible="true"
       lpeversion="1"
       steps="1"
       threshold="0.00569231"
       smooth_angles="360"
       helper_size="0"
       simplify_individual_paths="false"
       simplify_just_coalesce="false" />
    <inkscape:path-effect
       effect="spiro"
       id="path-effect3402"
       is_visible="true"
       lpeversion="1" />
    <inkscape:path-effect
       effect="simplify"
       id="path-effect3400"
       is_visible="true"
       lpeversion="1"
       steps="1"
       threshold="0.00569231"
       smooth_angles="360"
       helper_size="0"
       simplify_individual_paths="false"
       simplify_just_coalesce="false" />
    <marker
       style="overflow:visible"
       id="Arrow1L"
       refX="0"
       refY="0"
       orient="auto-start-reverse"
       inkscape:stockid="Arrow1L"
       markerWidth="8.75"
       markerHeight="5"
       viewBox="0 0 8.75 5"
       inkscape:isstock="true"
       inkscape:collect="always"
       preserveAspectRatio="xMidYMid">
      <path
         style="fill:context-stroke;fill-rule:evenodd;stroke:none"
         d="M 0,0 5,-5 -12.5,0 5,5 Z"
         id="arrow1L"
         transform="scale(-0.5)" />
    </marker>
    <clipPath
       id="clipPath3063">
      <path
         clip-rule="nonzero"
         d="M 0,2 H 8 V 9.636719 H 0 Z m 0,0"
         id="path9402" />
    </clipPath>
    <clipPath
       id="clipPath5126">
      <path
         clip-rule="nonzero"
         d="M 0,2 H 8 V 9.636719 H 0 Z m 0,0"
         id="path7273" />
    </clipPath>
  </defs>
  <g
     inkscape:label="Layer 1"
     inkscape:groupmode="layer"
     id="layer1"
     transform="translate(-32.48101,-21.404689)">
    <path
       style="fill:none;stroke:#b3b3b3;stroke-width:0.264583px;stroke-linecap:butt;stroke-linejoin:miter;stroke-dasharray:0.264583, 0.264583;stroke-dashoffset:0;stroke-opacity:1"
       d="m 77.31554,35.64936 v 81.20119"
       id="path24431"
       inkscape:path-effect="#path-effect24435;#path-effect24439"
       inkscape:original-d="m 77.31554,35.64936 v 81.20119"
       sodipodi:nodetypes="cc" />
    <path
       style="fill:none;stroke:#b3b3b3;stroke-width:0.264583px;stroke-linecap:butt;stroke-linejoin:miter;stroke-dasharray:0.264583, 0.264583;stroke-dashoffset:0;stroke-opacity:1"
       d="M 41.241005,75.659215 H 170.43987"
       id="path21038"
       inkscape:path-effect="#path-effect21040;#path-effect21042"
       inkscape:original-d="M 41.241005,75.659215 H 170.43987" />
    <rect
       style="opacity:1;fill:#93b47d;fill-opacity:0.226415;stroke:#000000;stroke-width:0.4;stroke-linecap:round;stroke-linejoin:round;stroke-miterlimit:2.9"
       id="rect234"
       width="121.13436"
       height="77.641678"
       x="45.801628"
       y="36.893993" />
    <path
       style="fill:none;stroke:#b3b3b3;stroke-width:0.264583px;stroke-linecap:butt;stroke-linejoin:miter;stroke-dasharray:0.529166, 0.264583;stroke-dashoffset:0;stroke-opacity:1"
       d="M 77.225362,75.659213 132.45329,36.949611"
       id="path3398"
       inkscape:path-effect="#path-effect3400;#path-effect3402"
       inkscape:original-d="M 77.225362,75.659213 132.45329,36.949611" />
    <path
       style="fill:none;stroke:#b3b3b3;stroke-width:0.264583px;stroke-linecap:butt;stroke-linejoin:miter;stroke-dasharray:0.529166, 0.264583;stroke-dashoffset:0;stroke-opacity:1"
       d="m 132.1752,36.838377 34.37146,22.413749"
       id="path4148"
       inkscape:path-effect="#path-effect4150;#path-effect4152"
       inkscape:original-d="m 132.1752,36.838377 34.37146,22.413749"
       sodipodi:nodetypes="cc" />
    <circle
       style="opacity:1;fill:#f0c139;stroke:#000000;stroke-width:0.4;stroke-linecap:round;stroke-linejoin:round;stroke-miterlimit:2.9"
       id="path2491"
       cx="102.5312"
       cy="57.861694"
       r="1.8909862" />
    <path
       style="fill:none;stroke:#000000;stroke-width:0.264583px;stroke-linecap:butt;stroke-linejoin:miter;stroke-opacity:1;marker-end:url(#Arrow1L)"
       d="M 77.128033,75.659214 H 96.81653"
       id="path407"
       sodipodi:nodetypes="cc" />
    <path
       style="fill:none;stroke:#000000;stroke-width:0.264583px;stroke-linecap:butt;stroke-linejoin:miter;stroke-opacity:1;marker-end:url(#Arrow1L)"
       d="M 77.253171,75.770448 V 55.748239"
       id="path409" />
    <text
       xml:space="preserve"
       style="font-size:4.23333px;line-height:1.25;font-family:Roboto;-inkscape-font-specification:Roboto;letter-spacing:0px;word-spacing:0px;stroke-width:0.264583"
       x="97.374474"
       y="79.283905"
       id="text7176"><tspan
         sodipodi:role="line"
         id="tspan7174"
         style="stroke-width:0.264583"
         x="97.374474"
         y="79.283905">x</tspan></text>
    <text
       xml:space="preserve"
       style="font-size:4.23333px;line-height:1.25;font-family:Roboto;-inkscape-font-specification:Roboto;letter-spacing:0px;word-spacing:0px;stroke-width:0.264583"
       x="74.171349"
       y="55.530193"
       id="text7918"><tspan
         sodipodi:role="line"
         id="tspan7916"
         style="stroke-width:0.264583"
         x="74.171349"
         y="55.530193">y</tspan></text>
    <path
       style="fill:none;stroke:#3139ae;stroke-width:0.264583px;stroke-linecap:butt;stroke-linejoin:miter;stroke-opacity:1;marker-end:url(#Arrow2)"
       d="m 132.11959,36.782759 10.40351,6.824633"
       id="path8658"
       sodipodi:nodetypes="cc" />
    <path
       style="fill:none;stroke:#3139ae;stroke-width:0.264583px;stroke-linecap:butt;stroke-linejoin:miter;stroke-opacity:1;marker-end:url(#Arrow2)"
       d="m 132.28644,37.005228 10.05602,-7.474589"
       id="path9767"
       sodipodi:nodetypes="cc" />
    <g
       inkscape:label=""
       transform="translate(143.35443,39.396727)"
       id="g12502">
      <g
         fill="#000000"
         fill-opacity="1"
         id="g20"
         transform="matrix(0.352778,0,0,0.352778,-0.198437,0.00246943)">
        <g
           id="use18"
           transform="translate(0.75599998,7.118)">
          <path
             d="m 5.359375,-5.9375 c -0.140625,0.140625 -0.46875,0.421875 -0.46875,0.59375 0,0.09375 0.09375,0.203125 0.1875,0.203125 0.09375,0 0.140625,-0.078125 0.203125,-0.140625 C 5.390625,-5.421875 5.625,-5.703125 6.0625,-5.921875 6.125,-5.96875 6.234375,-6.015625 6.234375,-6.125 6.234375,-6.234375 6.15625,-6.28125 6.09375,-6.328125 5.875,-6.484375 5.765625,-6.65625 5.6875,-6.890625 5.65625,-6.984375 5.625,-7.125 5.484375,-7.125 c -0.140625,0 -0.203125,0.140625 -0.203125,0.21875 0,0.046875 0.078125,0.359375 0.234375,0.578125 H 2.15625 c -0.15625,0 -0.34375,0 -0.34375,0.203125 0,0.1875 0.1875,0.1875 0.34375,0.1875 z m 0,0"
             id="path36" />
        </g>
      </g>
      <g
         clip-path="url(#clipPath3063)"
         id="g26"
         transform="matrix(0.352778,0,0,0.352778,-0.198437,0.00246943)">
        <g
           fill="#000000"
           fill-opacity="1"
           id="g24">
          <g
             id="use22"
             transform="translate(0,9.6359997)">
            <path
               d="M 6.265625,-5.671875 C 6.75,-6.453125 7.171875,-6.484375 7.53125,-6.5 c 0.125,-0.015625 0.140625,-0.171875 0.140625,-0.1875 0,-0.078125 -0.0625,-0.125 -0.140625,-0.125 -0.25,0 -0.546875,0.03125 -0.8125,0.03125 -0.328125,0 -0.671875,-0.03125 -0.984375,-0.03125 -0.0625,0 -0.1875,0 -0.1875,0.1875 0,0.109375 0.078125,0.125 0.15625,0.125 0.265625,0.015625 0.453125,0.125 0.453125,0.328125 0,0.15625 -0.140625,0.375 -0.140625,0.375 l -3.0625,4.875 -0.6875,-5.28125 C 2.265625,-6.375 2.5,-6.5 2.953125,-6.5 c 0.140625,0 0.25,0 0.25,-0.203125 0,-0.078125 -0.078125,-0.109375 -0.125,-0.109375 -0.40625,0 -0.828125,0.03125 -1.25,0.03125 -0.171875,0 -0.359375,0 -0.546875,0 -0.171875,0 -0.359375,-0.03125 -0.53125,-0.03125 -0.078125,0 -0.1875,0 -0.1875,0.1875 0,0.125 0.078125,0.125 0.25,0.125 0.546875,0 0.5625,0.09375 0.59375,0.34375 L 2.1875,-0.015625 C 2.21875,0.1875 2.265625,0.21875 2.390625,0.21875 c 0.15625,0 0.203125,-0.046875 0.28125,-0.171875 z m 0,0"
               id="path40" />
          </g>
        </g>
      </g>
      <g
         fill="#000000"
         fill-opacity="1"
         id="g30"
         transform="matrix(0.352778,0,0,0.352778,-0.198437,0.00246943)">
        <g
           id="use28"
           transform="translate(8.0249996,6.0209999)">
          <path
             d="m 3.21875,-1.578125 h 2.140625 c 0.09375,0 0.25,0 0.25,-0.15625 0,-0.1875 -0.15625,-0.1875 -0.25,-0.1875 H 3.21875 V -4.0625 c 0,-0.078125 0,-0.25 -0.15625,-0.25 -0.171875,0 -0.171875,0.15625 -0.171875,0.25 v 2.140625 H 0.75 c -0.09375,0 -0.265625,0 -0.265625,0.171875 0,0.171875 0.15625,0.171875 0.265625,0.171875 H 2.890625 V 0.5625 c 0,0.09375 0,0.265625 0.15625,0.265625 0.171875,0 0.171875,-0.171875 0.171875,-0.265625 z m 0,0"
             id="path44" />
        </g>
      </g>
    </g>
    <g
       inkscape:label=""
       transform="translate(142.79826,24.157602)"
       id="g12627">
      <g
         fill="#000000"
         fill-opacity="1"
         id="g12611"
         transform="matrix(0.352778,0,0,0.352778,-0.198437,0.00246943)">
        <g
           id="g12609"
           transform="translate(0.75599998,7.118)">
          <path
             d="m 5.359375,-5.9375 c -0.140625,0.140625 -0.46875,0.421875 -0.46875,0.59375 0,0.09375 0.09375,0.203125 0.1875,0.203125 0.09375,0 0.140625,-0.078125 0.203125,-0.140625 C 5.390625,-5.421875 5.625,-5.703125 6.0625,-5.921875 6.125,-5.96875 6.234375,-6.015625 6.234375,-6.125 6.234375,-6.234375 6.15625,-6.28125 6.09375,-6.328125 5.875,-6.484375 5.765625,-6.65625 5.6875,-6.890625 5.65625,-6.984375 5.625,-7.125 5.484375,-7.125 c -0.140625,0 -0.203125,0.140625 -0.203125,0.21875 0,0.046875 0.078125,0.359375 0.234375,0.578125 H 2.15625 c -0.15625,0 -0.34375,0 -0.34375,0.203125 0,0.1875 0.1875,0.1875 0.34375,0.1875 z m 0,0"
             id="path12607" />
        </g>
      </g>
      <g
         clip-path="url(#clipPath5126)"
         id="g12619"
         transform="matrix(0.352778,0,0,0.352778,-0.198437,0.00246943)">
        <g
           fill="#000000"
           fill-opacity="1"
           id="g12617">
          <g
             id="g12615"
             transform="translate(0,9.6359997)">
            <path
               d="M 6.265625,-5.671875 C 6.75,-6.453125 7.171875,-6.484375 7.53125,-6.5 c 0.125,-0.015625 0.140625,-0.171875 0.140625,-0.1875 0,-0.078125 -0.0625,-0.125 -0.140625,-0.125 -0.25,0 -0.546875,0.03125 -0.8125,0.03125 -0.328125,0 -0.671875,-0.03125 -0.984375,-0.03125 -0.0625,0 -0.1875,0 -0.1875,0.1875 0,0.109375 0.078125,0.125 0.15625,0.125 0.265625,0.015625 0.453125,0.125 0.453125,0.328125 0,0.15625 -0.140625,0.375 -0.140625,0.375 l -3.0625,4.875 -0.6875,-5.28125 C 2.265625,-6.375 2.5,-6.5 2.953125,-6.5 c 0.140625,0 0.25,0 0.25,-0.203125 0,-0.078125 -0.078125,-0.109375 -0.125,-0.109375 -0.40625,0 -0.828125,0.03125 -1.25,0.03125 -0.171875,0 -0.359375,0 -0.546875,0 -0.171875,0 -0.359375,-0.03125 -0.53125,-0.03125 -0.078125,0 -0.1875,0 -0.1875,0.1875 0,0.125 0.078125,0.125 0.25,0.125 0.546875,0 0.5625,0.09375 0.59375,0.34375 L 2.1875,-0.015625 C 2.21875,0.1875 2.265625,0.21875 2.390625,0.21875 c 0.15625,0 0.203125,-0.046875 0.28125,-0.171875 z m 0,0"
               id="path12613" />
          </g>
        </g>
      </g>
      <g
         fill="#000000"
         fill-opacity="1"
         id="g12625"
         transform="matrix(0.352778,0,0,0.352778,-0.198437,0.00246943)">
        <g
           id="g12623"
           transform="translate(8.0249996,6.0209999)">
          <path
             d="m 5.1875,-1.578125 c 0.109375,0 0.28125,0 0.28125,-0.15625 0,-0.1875 -0.171875,-0.1875 -0.28125,-0.1875 H 1.03125 c -0.109375,0 -0.28125,0 -0.28125,0.171875 0,0.171875 0.15625,0.171875 0.28125,0.171875 z m 0,0"
             id="path12621" />
        </g>
      </g>
    </g>
    <text
       xml:space="preserve"
       style="font-size:4.23333px;line-height:1.25;font-family:Roboto;-inkscape-font-specification:Roboto;letter-spacing:0px;word-spacing:0px;stroke-width:0.264583"
       x="129.72804"
       y="35.169857"
       id="text13410"><tspan
         sodipodi:role="line"
         id="tspan13408"
         style="font-style:italic;stroke-width:0.264583"
         x="129.72804"
         y="35.169857">t<tspan
   style="font-style:italic;font-size:65%;baseline-shift:sub"
   id="tspan13412">k</tspan></tspan></text>
    <text
       xml:space="preserve"
       style="font-size:4.23333px;line-height:1.25;font-family:Roboto;-inkscape-font-specification:Roboto;letter-spacing:0px;word-spacing:0px;stroke-width:0.264583"
       x="78.17086"
       y="79.163101"
       id="text13468"><tspan
         sodipodi:role="line"
         id="tspan13466"
         style="font-style:italic;stroke-width:0.264583"
         x="78.17086"
         y="79.163101">t<tspan
   style="font-style:italic;font-size:65%;baseline-shift:sub"
   id="tspan13464">0</tspan></tspan></text>
    <text
       xml:space="preserve"
       style="font-size:4.23333px;line-height:1.25;font-family:Roboto;-inkscape-font-specification:Roboto;letter-spacing:0px;word-spacing:0px;stroke-width:0.264583"
       x="144.63344"
       y="28.106466"
       id="text14974"><tspan
         sodipodi:role="line"
         id="tspan14972"
         style="font-style:italic;stroke-width:0.264583"
         x="144.63344"
         y="28.106466"><tspan
           style="font-style:italic;font-size:65%;baseline-shift:sub"
           id="tspan14970">k</tspan></tspan></text>
    <text
       xml:space="preserve"
       style="font-size:4.23333px;line-height:1.25;font-family:Roboto;-inkscape-font-specification:Roboto;letter-spacing:0px;word-spacing:0px;stroke-width:0.264583"
       x="145.18961"
       y="43.512444"
       id="text14980"><tspan
         sodipodi:role="line"
         id="tspan14978"
         style="font-style:italic;stroke-width:0.264583"
         x="145.18961"
         y="43.512444"><tspan
           style="font-style:italic;font-size:65%;baseline-shift:sub"
           id="tspan14976">k</tspan></tspan></text>
    <path
       style="fill:none;stroke:#3139ae;stroke-width:0.264583px;stroke-linecap:butt;stroke-linejoin:miter;stroke-opacity:1;marker-end:url(#Arrow2)"
       d="m 104.19973,56.74935 9.88917,-6.918417"
       id="path16861"
       sodipodi:nodetypes="cc" />
    <g
       inkscape:label=""
       transform="translate(110.54026,45.848327)"
       id="g18389">
      <g
         fill="#000000"
         fill-opacity="1"
         id="g18373"
         transform="matrix(0.352778,0,0,0.352778,-0.198437,0.00246943)">
        <g
           id="g18371"
           transform="translate(0.75599998,7.118)">
          <path
             d="m 5.359375,-5.9375 c -0.140625,0.140625 -0.46875,0.421875 -0.46875,0.59375 0,0.09375 0.09375,0.203125 0.1875,0.203125 0.09375,0 0.140625,-0.078125 0.203125,-0.140625 C 5.390625,-5.421875 5.625,-5.703125 6.0625,-5.921875 6.125,-5.96875 6.234375,-6.015625 6.234375,-6.125 6.234375,-6.234375 6.15625,-6.28125 6.09375,-6.328125 5.875,-6.484375 5.765625,-6.65625 5.6875,-6.890625 5.65625,-6.984375 5.625,-7.125 5.484375,-7.125 c -0.140625,0 -0.203125,0.140625 -0.203125,0.21875 0,0.046875 0.078125,0.359375 0.234375,0.578125 H 2.15625 c -0.15625,0 -0.34375,0 -0.34375,0.203125 0,0.1875 0.1875,0.1875 0.34375,0.1875 z m 0,0"
             id="path18369" />
        </g>
      </g>
      <g
         clip-path="url(#clipPath5126)"
         id="g18381"
         transform="matrix(0.352778,0,0,0.352778,-0.198437,0.00246943)">
        <g
           fill="#000000"
           fill-opacity="1"
           id="g18379">
          <g
             id="g18377"
             transform="translate(0,9.6359997)">
            <path
               d="M 6.265625,-5.671875 C 6.75,-6.453125 7.171875,-6.484375 7.53125,-6.5 c 0.125,-0.015625 0.140625,-0.171875 0.140625,-0.1875 0,-0.078125 -0.0625,-0.125 -0.140625,-0.125 -0.25,0 -0.546875,0.03125 -0.8125,0.03125 -0.328125,0 -0.671875,-0.03125 -0.984375,-0.03125 -0.0625,0 -0.1875,0 -0.1875,0.1875 0,0.109375 0.078125,0.125 0.15625,0.125 0.265625,0.015625 0.453125,0.125 0.453125,0.328125 0,0.15625 -0.140625,0.375 -0.140625,0.375 l -3.0625,4.875 -0.6875,-5.28125 C 2.265625,-6.375 2.5,-6.5 2.953125,-6.5 c 0.140625,0 0.25,0 0.25,-0.203125 0,-0.078125 -0.078125,-0.109375 -0.125,-0.109375 -0.40625,0 -0.828125,0.03125 -1.25,0.03125 -0.171875,0 -0.359375,0 -0.546875,0 -0.171875,0 -0.359375,-0.03125 -0.53125,-0.03125 -0.078125,0 -0.1875,0 -0.1875,0.1875 0,0.125 0.078125,0.125 0.25,0.125 0.546875,0 0.5625,0.09375 0.59375,0.34375 L 2.1875,-0.015625 C 2.21875,0.1875 2.265625,0.21875 2.390625,0.21875 c 0.15625,0 0.203125,-0.046875 0.28125,-0.171875 z m 0,0"
               id="path18375" />
          </g>
        </g>
      </g>
      <g
         fill="#000000"
         fill-opacity="1"
         id="g18387"
         transform="matrix(0.352778,0,0,0.352778,-0.198437,0.00246943)">
        <g
           id="g18385"
           transform="translate(8.0249996,6.0209999)" />
      </g>
    </g>
    <text
       xml:space="preserve"
       style="font-size:4.23333px;line-height:1.25;font-family:Roboto;-inkscape-font-specification:Roboto;letter-spacing:0px;word-spacing:0px;stroke-width:0.264583"
       x="38.293301"
       y="73.935081"
       id="text25580"><tspan
         sodipodi:role="line"
         id="tspan25578"
         style="stroke-width:0.264583"
         x="38.293301"
         y="73.935081">x<tspan
   style="font-size:65%;baseline-shift:sub"
   id="tspan25582">min</tspan></tspan></text>
    <text
       xml:space="preserve"
       style="font-size:4.23333px;line-height:1.25;font-family:Roboto;-inkscape-font-specification:Roboto;letter-spacing:0px;word-spacing:0px;stroke-width:0.264583"
       x="168.21516"
       y="73.935081"
       id="text25588"><tspan
         sodipodi:role="line"
         id="tspan25586"
         style="stroke-width:0.264583"
         x="168.21516"
         y="73.935081">x<tspan
   style="font-size:65%;baseline-shift:sub"
   id="tspan25584">max</tspan></tspan></text>
    <text
       xml:space="preserve"
       style="font-size:4.23333px;line-height:1.25;font-family:Roboto;-inkscape-font-specification:Roboto;letter-spacing:0px;word-spacing:0px;stroke-width:0.264583"
       x="78.115242"
       y="35.003006"
       id="text25594"><tspan
         sodipodi:role="line"
         id="tspan25592"
         style="stroke-width:0.264583"
         x="78.115242"
         y="35.003006">y<tspan
   style="font-size:65%;baseline-shift:sub"
   id="tspan25590">max</tspan></tspan></text>
    <text
       xml:space="preserve"
       style="font-size:4.23333px;line-height:1.25;font-family:Roboto;-inkscape-font-specification:Roboto;letter-spacing:0px;word-spacing:0px;stroke-width:0.264583"
       x="78.337708"
       y="117.70586"
       id="text25600"><tspan
         sodipodi:role="line"
         id="tspan25598"
         style="stroke-width:0.264583"
         x="78.337708"
         y="117.70586">y<tspan
   style="font-size:65%;baseline-shift:sub"
   id="tspan25596">min</tspan></tspan></text>
  </g>
</svg>
