<?xml version="1.0" encoding="UTF-8" standalone="no"?>
<!-- Created with Inkscape (http://www.inkscape.org/) -->

<svg
   width="167.50842mm"
   height="107.01148mm"
   viewBox="0 0 167.50843 107.01148"
   version="1.1"
   id="svg5"
   sodipodi:docname="simple_pendulum.svg"
   inkscape:version="1.2.2 (b0a8486541, 2022-12-01)"
   xmlns:inkscape="http://www.inkscape.org/namespaces/inkscape"
   xmlns:sodipodi="http://sodipodi.sourceforge.net/DTD/sodipodi-0.dtd"
   xmlns:xlink="http://www.w3.org/1999/xlink"
   xmlns="http://www.w3.org/2000/svg"
   xmlns:svg="http://www.w3.org/2000/svg">
  <sodipodi:namedview
     id="namedview7"
     pagecolor="#ffffff"
     bordercolor="#666666"
     borderopacity="1.0"
     inkscape:showpageshadow="2"
     inkscape:pageopacity="0.0"
     inkscape:pagecheckerboard="0"
     inkscape:deskcolor="#d1d1d1"
     inkscape:document-units="mm"
     showgrid="false"
     inkscape:zoom="1.1893044"
     inkscape:cx="211.88856"
     inkscape:cy="289.2447"
     inkscape:window-width="2400"
     inkscape:window-height="1284"
     inkscape:window-x="0"
     inkscape:window-y="29"
     inkscape:window-maximized="1"
     inkscape:current-layer="layer1" />
  <defs
     id="defs2">
    <linearGradient
       inkscape:collect="always"
       id="linearGradient18846">
      <stop
         style="stop-color:#000000;stop-opacity:1;"
         offset="0"
         id="stop18842" />
      <stop
         style="stop-color:#000000;stop-opacity:0;"
         offset="1"
         id="stop18844" />
    </linearGradient>
    <linearGradient
       inkscape:collect="always"
       id="linearGradient15105">
      <stop
         style="stop-color:#000000;stop-opacity:1"
         offset="0"
         id="stop15101" />
      <stop
         style="stop-color:#808080;stop-opacity:0;"
         offset="1"
         id="stop15103" />
    </linearGradient>
    <linearGradient
       inkscape:collect="always"
       id="linearGradient14083">
      <stop
         style="stop-color:#ca4436;stop-opacity:1;"
         offset="0"
         id="stop14079" />
      <stop
         style="stop-color:#ca4436;stop-opacity:0;"
         offset="1"
         id="stop14081" />
    </linearGradient>
    <marker
       style="overflow:visible"
       id="Arrow1L"
       refX="0"
       refY="0"
       orient="auto-start-reverse"
       inkscape:stockid="Arrow1L"
       markerWidth="8.75"
       markerHeight="5"
       viewBox="0 0 8.75 5"
       inkscape:isstock="true"
       inkscape:collect="always"
       preserveAspectRatio="xMidYMid">
      <path
         style="fill:context-stroke;fill-rule:evenodd;stroke:none"
         d="M 0,0 5,-5 -12.5,0 5,5 Z"
         id="arrow1L"
         transform="scale(-0.5)" />
    </marker>
    <clipPath
       id="clipPath4289">
      <path
         clip-rule="nonzero"
         d="M 0,0 H 6.515625 V 6.226562 H 0 Z m 0,0"
         id="path1178" />
    </clipPath>
    <clipPath
       id="clipPath8874">
      <path
         clip-rule="nonzero"
         d="m 10,0 h 3.855469 V 2 H 10 Z m 0,0"
         id="path1281" />
    </clipPath>
    <clipPath
       id="clipPath6762">
      <path
         clip-rule="nonzero"
         d="m 8,2 h 5.855469 V 9.054688 H 8 Z m 0,0"
         id="path5164" />
    </clipPath>
    <clipPath
       id="clipPath8430">
      <path
         clip-rule="nonzero"
         d="M 0,0 H 3 V 6.917969 H 0 Z m 0,0"
         id="path7867" />
    </clipPath>
    <clipPath
       id="clipPath9399">
      <path
         clip-rule="nonzero"
         d="M 0,0 H 7.875 V 6.808594 H 0 Z m 0,0"
         id="path8147" />
    </clipPath>
    <clipPath
       id="clipPath8122">
      <path
         clip-rule="nonzero"
         d="M 0,0 H 10.75 V 6.808594 H 0 Z m 0,0"
         id="path6877" />
    </clipPath>
    <linearGradient
       inkscape:collect="always"
       xlink:href="#linearGradient14083"
       id="linearGradient14085"
       x1="125.89233"
       y1="109.32431"
       x2="126.13972"
       y2="97.805565"
       gradientUnits="userSpaceOnUse" />
    <linearGradient
       inkscape:collect="always"
       xlink:href="#linearGradient15105"
       id="linearGradient15107"
       x1="151.60001"
       y1="31.605957"
       x2="146.13097"
       y2="18.804577"
       gradientUnits="userSpaceOnUse"
       gradientTransform="matrix(1.1149444,0,0,1.1149444,-43.806432,15.019807)" />
    <radialGradient
       inkscape:collect="always"
       xlink:href="#linearGradient18846"
       id="radialGradient23840"
       cx="136.32089"
       cy="84.427345"
       fx="136.32089"
       fy="84.427345"
       r="13.599857"
       gradientTransform="matrix(-1.1483988,0.45137886,-0.22629447,-0.57573882,290.53455,71.384821)"
       gradientUnits="userSpaceOnUse" />
    <radialGradient
       inkscape:collect="always"
       xlink:href="#linearGradient18846"
       id="radialGradient26380"
       cx="101.58109"
       cy="99.600479"
       fx="101.58109"
       fy="99.600479"
       r="22.49169"
       gradientTransform="matrix(1.0746494,0.01493599,-0.01680449,1.2090894,-40.437342,-30.718357)"
       gradientUnits="userSpaceOnUse" />
  </defs>
  <g
     inkscape:label="Layer 1"
     inkscape:groupmode="layer"
     id="layer1"
     transform="translate(0,-7.7864142)">
    <path
       style="fill:none;stroke:#3139ae;stroke-width:0.264582px;stroke-linecap:butt;stroke-linejoin:miter;stroke-opacity:1"
       d="m 77.193668,17.108636 17.223968,69.41179"
       id="path308"
       sodipodi:nodetypes="cc" />
    <circle
       style="fill:url(#linearGradient15107);fill-opacity:1;stroke:#808080;stroke-width:0.00999998;stroke-linecap:round;stroke-miterlimit:3.9"
       id="path362"
       cx="122.85735"
       cy="46.115353"
       transform="rotate(22.79366)"
       r="3.8446286" />
    <path
       style="fill:none;stroke:#000000;stroke-width:0.5;stroke-linecap:butt;stroke-linejoin:miter;stroke-dasharray:none;stroke-opacity:1"
       d="M 63.05757,17.338988 H 92.202331"
       id="path472" />
    <path
       style="fill:none;stroke:#000000;stroke-width:0.264582px;stroke-linecap:butt;stroke-linejoin:miter;stroke-dasharray:1.05833, 0.529166;stroke-dashoffset:0;stroke-opacity:1"
       d="M 77.443928,12.750241 V 101.54875"
       id="path2117"
       sodipodi:nodetypes="cc" />
    <path
       style="fill:none;stroke:#000000;stroke-width:0.3;stroke-linecap:round;stroke-miterlimit:3.9;stroke-dasharray:none;stroke-dashoffset:0;marker-start:url(#Arrow1L)"
       id="path2993"
       sodipodi:type="arc"
       sodipodi:cx="77.319893"
       sodipodi:cy="17.338987"
       sodipodi:rx="60.645908"
       sodipodi:ry="60.645908"
       sodipodi:start="1.3680368"
       sodipodi:end="1.5683983"
       sodipodi:open="true"
       sodipodi:arc-type="arc"
       d="m 89.532347,76.742541 a 60.645908,60.645908 0 0 1 -12.067024,1.24218" />
    <g
       inkscape:label=""
       transform="matrix(2.0136814,0,0,2.0136814,82.777128,79.188249)"
       id="g4710"
       style="stroke-width:0.496603">
      <g
         clip-path="url(#clipPath4289)"
         id="g16"
         transform="matrix(0.352778,0,0,0.352778,-0.176389,0.0410104)"
         style="stroke-width:0.496603">
        <g
           fill="#000000"
           fill-opacity="1"
           id="g14"
           style="stroke-width:0.274961">
          <g
             id="use12"
             transform="translate(0,4.29)"
             style="stroke-width:0.496603">
            <path
               d="M 1.6875,1.6875 C 1.65625,1.828125 1.640625,1.84375 1.640625,1.890625 c 0,0.21875 0.1875,0.28125 0.296875,0.28125 0.046875,0 0.265625,-0.03125 0.359375,-0.265625 C 2.328125,1.828125 2.375,1.5 2.65625,0.09375 c 0.078125,0 0.15625,0.015625 0.328125,0.015625 1.65625,0 3.1875,-1.5625 3.1875,-3.140625 0,-0.78125 -0.390625,-1.375 -1.140625,-1.375 -1.4375,0 -2.046875,1.9375 -2.640625,3.875 C 1.3125,-0.734375 0.75,-1.28125 0.75,-2 c 0,-0.28125 0.234375,-1.375 0.828125,-2.0625 0.09375,-0.09375 0.09375,-0.109375 0.09375,-0.140625 0,-0.03125 -0.03125,-0.09375 -0.125,-0.09375 -0.28125,0 -1.046875,1.453125 -1.046875,2.40625 0,0.9375 0.65625,1.65625 1.71875,1.90625 z m 1.390625,-2.15625 c -0.09375,0 -0.109375,0 -0.1875,-0.015625 -0.125,0 -0.125,0 -0.125,-0.03125 0,-0.015625 0.171875,-0.9375 0.1875,-1.078125 0.3125,-1.28125 1.09375,-2.234375 1.984375,-2.234375 0.6875,0 0.953125,0.53125 0.953125,1.015625 0,1.125 -1.28125,2.34375 -2.8125,2.34375 z m 0,0"
               id="path22"
               style="stroke-width:0.496603" />
          </g>
        </g>
      </g>
    </g>
    <g
       inkscape:label=""
       transform="matrix(1.6585023,0,0,1.6585023,98.775734,100.99524)"
       id="g4778"
       style="stroke-width:0.602954">
      <g
         fill="#000000"
         fill-opacity="1"
         id="g23"
         transform="matrix(0.352778,0,0,0.352778,-0.104731,0.00246943)"
         style="stroke-width:0.405341">
        <g
           id="use21"
           transform="translate(0,7.118)"
           style="stroke-width:0.602954">
          <path
             d="m 0.875,-0.59375 c -0.03125,0.15625 -0.09375,0.390625 -0.09375,0.4375 0,0.171875 0.140625,0.265625 0.296875,0.265625 0.125,0 0.296875,-0.078125 0.375,-0.28125 0,-0.015625 0.125,-0.484375 0.1875,-0.734375 l 0.21875,-0.890625 C 1.90625,-2.03125 1.96875,-2.25 2.03125,-2.46875 c 0.03125,-0.171875 0.109375,-0.46875 0.125,-0.5 0.140625,-0.3125 0.671875,-1.21875 1.625,-1.21875 0.453125,0 0.53125,0.375 0.53125,0.703125 0,0.25 -0.0625,0.53125 -0.140625,0.828125 L 3.890625,-1.5 3.6875,-0.75 c -0.03125,0.203125 -0.125,0.546875 -0.125,0.59375 0,0.171875 0.140625,0.265625 0.28125,0.265625 0.3125,0 0.375,-0.25 0.453125,-0.5625 0.140625,-0.5625 0.515625,-2.015625 0.59375,-2.40625 0.03125,-0.125 0.5625,-1.328125 1.65625,-1.328125 0.421875,0 0.53125,0.34375 0.53125,0.703125 0,0.5625 -0.421875,1.703125 -0.625,2.234375 -0.078125,0.234375 -0.125,0.34375 -0.125,0.546875 0,0.46875 0.34375,0.8125 0.8125,0.8125 0.9375,0 1.3125,-1.453125 1.3125,-1.53125 0,-0.109375 -0.09375,-0.109375 -0.125,-0.109375 -0.09375,0 -0.09375,0.03125 -0.140625,0.1875 -0.15625,0.53125 -0.46875,1.234375 -1.015625,1.234375 -0.171875,0 -0.25,-0.09375 -0.25,-0.328125 0,-0.25 0.09375,-0.484375 0.1875,-0.703125 0.1875,-0.53125 0.609375,-1.625 0.609375,-2.203125 0,-0.640625 -0.40625,-1.0625 -1.15625,-1.0625 -0.734375,0 -1.25,0.4375 -1.625,0.96875 0,-0.125 -0.03125,-0.46875 -0.3125,-0.703125 -0.25,-0.21875 -0.5625,-0.265625 -0.8125,-0.265625 -0.90625,0 -1.390625,0.640625 -1.5625,0.875 -0.046875,-0.578125 -0.46875,-0.875 -0.921875,-0.875 -0.453125,0 -0.640625,0.390625 -0.734375,0.5625 -0.171875,0.359375 -0.296875,0.9375 -0.296875,0.96875 0,0.109375 0.09375,0.109375 0.109375,0.109375 0.109375,0 0.109375,-0.015625 0.171875,-0.234375 0.171875,-0.703125 0.375,-1.1875 0.734375,-1.1875 0.15625,0 0.296875,0.078125 0.296875,0.453125 0,0.21875 -0.03125,0.328125 -0.15625,0.84375 z m 0,0"
             id="path41"
             style="stroke-width:0.602954" />
        </g>
      </g>
      <g
         clip-path="url(#clipPath8874)"
         id="g29"
         transform="matrix(0.352778,0,0,0.352778,-0.104731,0.00246943)"
         style="stroke-width:0.602954">
        <g
           fill="#000000"
           fill-opacity="1"
           id="g27"
           style="stroke-width:0.405341">
          <g
             id="use25"
             transform="translate(8.3187714,7.118)"
             style="stroke-width:0.602954">
            <path
               d="m 5.359375,-5.9375 c -0.140625,0.140625 -0.46875,0.421875 -0.46875,0.59375 0,0.09375 0.09375,0.203125 0.1875,0.203125 0.09375,0 0.140625,-0.078125 0.203125,-0.140625 C 5.390625,-5.421875 5.625,-5.703125 6.0625,-5.921875 6.125,-5.96875 6.234375,-6.015625 6.234375,-6.125 6.234375,-6.234375 6.15625,-6.28125 6.09375,-6.328125 5.875,-6.484375 5.765625,-6.65625 5.6875,-6.890625 5.65625,-6.984375 5.625,-7.125 5.484375,-7.125 c -0.140625,0 -0.203125,0.140625 -0.203125,0.21875 0,0.046875 0.078125,0.359375 0.234375,0.578125 H 2.15625 c -0.15625,0 -0.34375,0 -0.34375,0.203125 0,0.1875 0.1875,0.1875 0.34375,0.1875 z m 0,0"
               id="path45"
               style="stroke-width:0.602954" />
          </g>
        </g>
      </g>
      <g
         clip-path="url(#clipPath6762)"
         id="g35"
         transform="matrix(0.352778,0,0,0.352778,-0.104731,0.00246943)"
         style="stroke-width:0.602954">
        <g
           fill="#000000"
           fill-opacity="1"
           id="g33"
           style="stroke-width:0.405341">
          <g
             id="use31"
             transform="translate(8.7471628,7.118)"
             style="stroke-width:0.602954">
            <path
               d="M 4.6875,-3.765625 C 4.703125,-3.8125 4.71875,-3.875 4.71875,-3.9375 c 0,-0.171875 -0.109375,-0.265625 -0.28125,-0.265625 -0.09375,0 -0.375,0.0625 -0.40625,0.421875 -0.1875,-0.359375 -0.53125,-0.625 -0.9375,-0.625 -1.125,0 -2.359375,1.390625 -2.359375,2.828125 0,0.984375 0.59375,1.578125 1.3125,1.578125 0.59375,0 1.0625,-0.46875 1.15625,-0.578125 L 3.21875,-0.5625 C 3.015625,0.3125 2.890625,0.734375 2.890625,0.75 2.84375,0.84375 2.515625,1.828125 1.453125,1.828125 1.265625,1.828125 0.9375,1.8125 0.65625,1.71875 0.953125,1.640625 1.0625,1.375 1.0625,1.203125 c 0,-0.15625 -0.109375,-0.34375 -0.375,-0.34375 -0.21875,0 -0.53125,0.171875 -0.53125,0.578125 0,0.40625 0.359375,0.609375 1.3125,0.609375 1.25,0 1.96875,-0.78125 2.125,-1.375 z M 3.40625,-1.28125 C 3.34375,-1.015625 3.109375,-0.765625 2.890625,-0.578125 2.6875,-0.40625 2.375,-0.21875 2.078125,-0.21875 c -0.5,0 -0.640625,-0.515625 -0.640625,-0.921875 0,-0.46875 0.28125,-1.65625 0.5625,-2.15625 C 2.265625,-3.78125 2.6875,-4.1875 3.109375,-4.1875 c 0.65625,0 0.796875,0.8125 0.796875,0.859375 0,0.046875 -0.015625,0.109375 -0.03125,0.140625 z m 0,0"
               id="path49"
               style="stroke-width:0.602954" />
          </g>
        </g>
      </g>
    </g>
    <g
       inkscape:label=""
       transform="matrix(1.851797,0,0,1.851797,88.420041,51.195517)"
       id="g6358"
       style="stroke-width:0.540016">
      <g
         clip-path="url(#clipPath8430)"
         id="g6356"
         transform="matrix(0.352778,0,0,0.352778,-0.15434,0.00136694)"
         style="stroke-width:0.540016">
        <g
           fill="#000000"
           fill-opacity="1"
           id="g6354"
           style="stroke-width:0.325137">
          <g
             id="g6352"
             transform="translate(0,6.9180002)"
             style="stroke-width:0.540016">
            <path
               d="m 2.578125,-6.8125 c 0,0 0,-0.109375 -0.140625,-0.109375 -0.21875,0 -0.953125,0.078125 -1.21875,0.109375 -0.078125,0 -0.1875,0.015625 -0.1875,0.203125 0,0.109375 0.109375,0.109375 0.25,0.109375 0.484375,0 0.5,0.09375 0.5,0.171875 L 1.75,-6.125 0.484375,-1.140625 C 0.453125,-1.03125 0.4375,-0.96875 0.4375,-0.8125 c 0,0.578125 0.4375,0.921875 0.90625,0.921875 0.328125,0 0.578125,-0.203125 0.75,-0.5625 0.171875,-0.375 0.296875,-0.953125 0.296875,-0.96875 0,-0.109375 -0.09375,-0.109375 -0.125,-0.109375 -0.09375,0 -0.109375,0.046875 -0.125,0.1875 C 1.96875,-0.703125 1.78125,-0.109375 1.375,-0.109375 c -0.296875,0 -0.296875,-0.3125 -0.296875,-0.453125 0,-0.25 0.015625,-0.296875 0.0625,-0.484375 z m 0,0"
               id="path6350"
               style="stroke-width:0.540016" />
          </g>
        </g>
      </g>
    </g>
    <g
       inkscape:label=""
       transform="matrix(1.6251352,0,0,1.6251352,78.436404,11.794667)"
       id="g7941"
       style="stroke-width:0.615333">
      <g
         clip-path="url(#clipPath9399)"
         id="g7939"
         transform="matrix(0.352778,0,0,0.352778,-0.170877,0.0787576)"
         style="stroke-width:0.615333">
        <g
           fill="#000000"
           fill-opacity="1"
           id="g7937"
           style="stroke-width:0.422157">
          <g
             id="g7935"
             transform="translate(0,6.8080001)"
             style="stroke-width:0.615333">
            <path
               d="m 7.375,-4.34375 c 0,-1.609375 -1.0625,-2.6875 -2.546875,-2.6875 -2.140625,0 -4.34375,2.265625 -4.34375,4.59375 0,1.65625 1.125,2.65625 2.5625,2.65625 2.109375,0 4.328125,-2.1875 4.328125,-4.5625 z m -4.28125,4.296875 c -0.984375,0 -1.671875,-0.796875 -1.671875,-2.109375 0,-0.453125 0.140625,-1.90625 0.90625,-3.0625 0.6875,-1.046875 1.65625,-1.5625 2.453125,-1.5625 0.8125,0 1.703125,0.5625 1.703125,2.046875 0,0.71875 -0.265625,2.265625 -1.25,3.5 C 4.75,-0.625 3.9375,-0.046875 3.09375,-0.046875 Z m 0,0"
               id="path7933"
               style="stroke-width:0.615333" />
          </g>
        </g>
      </g>
    </g>
    <g
       inkscape:label=""
       transform="matrix(1.6078892,0,0,1.6078892,99.154035,91.959705)"
       id="g8800"
       style="stroke-width:0.621933">
      <g
         clip-path="url(#clipPath8122)"
         id="g8798"
         transform="matrix(0.352778,0,0,0.352778,-0.148828,0.00158747)"
         style="stroke-width:0.621933">
        <g
           fill="#000000"
           fill-opacity="1"
           id="g8796"
           style="stroke-width:0.431261">
          <g
             id="g8794"
             transform="translate(0,6.8080001)"
             style="stroke-width:0.621933">
            <path
               d="M 9.234375,-6.046875 C 9.328125,-6.40625 9.34375,-6.5 10.09375,-6.5 c 0.21875,0 0.3125,0 0.3125,-0.203125 0,-0.109375 -0.09375,-0.109375 -0.265625,-0.109375 h -1.3125 c -0.265625,0 -0.28125,0 -0.390625,0.1875 L 4.796875,-0.9375 4.015625,-6.578125 C 3.984375,-6.8125 3.96875,-6.8125 3.703125,-6.8125 H 2.34375 c -0.1875,0 -0.296875,0 -0.296875,0.1875 0,0.125 0.09375,0.125 0.28125,0.125 0.140625,0 0.3125,0.015625 0.4375,0.015625 0.15625,0.03125 0.21875,0.046875 0.21875,0.171875 0,0.03125 -0.015625,0.0625 -0.046875,0.1875 l -1.265625,5.0625 c -0.09375,0.40625 -0.265625,0.71875 -1.078125,0.75 -0.046875,0 -0.171875,0.015625 -0.171875,0.1875 0,0.09375 0.0625,0.125 0.140625,0.125 0.3125,0 0.65625,-0.03125 1,-0.03125 C 1.890625,-0.03125 2.25,0 2.578125,0 c 0.046875,0 0.1875,0 0.1875,-0.203125 0,-0.109375 -0.109375,-0.109375 -0.1875,-0.109375 -0.5625,0 -0.671875,-0.203125 -0.671875,-0.4375 0,-0.0625 0,-0.125 0.03125,-0.234375 L 3.296875,-6.40625 H 3.3125 l 0.859375,6.171875 C 4.1875,-0.109375 4.203125,0 4.3125,0 4.421875,0 4.484375,-0.109375 4.53125,-0.171875 l 4.03125,-6.3125 h 0.015625 l -1.4375,5.703125 c -0.09375,0.390625 -0.109375,0.46875 -0.90625,0.46875 -0.15625,0 -0.265625,0 -0.265625,0.1875 C 5.96875,0 6.078125,0 6.109375,0 6.390625,0 7.0625,-0.03125 7.34375,-0.03125 7.75,-0.03125 8.1875,0 8.59375,0 8.65625,0 8.78125,0 8.78125,-0.203125 8.78125,-0.3125 8.6875,-0.3125 8.5,-0.3125 c -0.359375,0 -0.640625,0 -0.640625,-0.171875 0,-0.046875 0,-0.0625 0.046875,-0.25 z m 0,0"
               id="path8792"
               style="stroke-width:0.621933" />
          </g>
        </g>
      </g>
    </g>
    <g
       id="path9618"
       transform="matrix(0.87264109,0,0,0.76894254,-13.843196,17.268691)"
       style="stroke-width:1.22078">
      <path
         style="color:#000000;fill:url(#linearGradient14085);fill-opacity:1;stroke-width:1.22078;stroke-miterlimit:2.9;-inkscape-stroke:none"
         d="m 126.01186,99.969055 h -1.46663 v 16.020595 l -1.26575,0.007 2.0045,4.05148 1.86068,-4.05421 -1.15544,2.4e-4"
         id="path14048"
         sodipodi:nodetypes="ccccccc" />
      <g
         id="g14042"
         style="stroke-width:1.22078">
        <path
           d="m 136.63246,54.70911 -1.53818,4.23 -1.53818,-4.23 c 0.89599,0.769091 2.17653,0.769091 3.07636,0 z"
           style="fill:context-stroke;fill-rule:evenodd;stroke-width:0.469442"
           id="path14044" />
      </g>
    </g>
    <circle
       style="fill:#ffffff;stroke:#000000;stroke-width:0.3;stroke-linecap:round;stroke-miterlimit:2.9;stroke-dasharray:none;stroke-dashoffset:0"
       id="path17708"
       cx="77.534172"
       cy="17.396408"
       r="0.87695575" />
    <path
       style="fill:none;stroke:url(#radialGradient26380);stroke-width:0.1;stroke-linecap:round;stroke-miterlimit:2.9;stroke-dasharray:none;stroke-dashoffset:0"
       id="circle18817"
       sodipodi:type="arc"
       sodipodi:cx="81.392731"
       sodipodi:cy="21.25503"
       sodipodi:rx="70.59494"
       sodipodi:ry="70.59494"
       sodipodi:start="1.4327159"
       sodipodi:end="2.1787946"
       sodipodi:arc-type="arc"
       d="M 91.109564,91.17805 A 70.59494,70.59494 0 0 1 41.067094,79.198869"
       sodipodi:open="true" />
    <path
       style="fill:none;stroke:url(#radialGradient23840);stroke-width:0.1;stroke-linecap:round;stroke-miterlimit:2.9;stroke-dasharray:none;stroke-dashoffset:0"
       id="path18862"
       sodipodi:type="arc"
       sodipodi:cx="81.392731"
       sodipodi:cy="21.25503"
       sodipodi:rx="70.59494"
       sodipodi:ry="70.59494"
       sodipodi:start="0.81843355"
       sodipodi:end="1.312571"
       sodipodi:arc-type="arc"
       d="M 129.63489,72.79472 A 70.59494,70.59494 0 0 1 99.420216,89.509373"
       sodipodi:open="true" />
  </g>
</svg>
