<?xml version="1.0" encoding="UTF-8" standalone="no"?>
<!-- Created with matplotlib (https://matplotlib.org/) -->

<svg
   height="810pt"
   version="1.1"
   viewBox="0 0 1440 810.00001"
   width="1440pt"
   id="svg323"
   sodipodi:docname="pendulum-phi.svg"
   inkscape:version="1.2.2 (b0a8486541, 2022-12-01)"
   xmlns:inkscape="http://www.inkscape.org/namespaces/inkscape"
   xmlns:sodipodi="http://sodipodi.sourceforge.net/DTD/sodipodi-0.dtd"
   xmlns:xlink="http://www.w3.org/1999/xlink"
   xmlns="http://www.w3.org/2000/svg"
   xmlns:svg="http://www.w3.org/2000/svg">
  <sodipodi:namedview
     id="namedview325"
     pagecolor="#ffffff"
     bordercolor="#666666"
     borderopacity="1.0"
     inkscape:showpageshadow="2"
     inkscape:pageopacity="0.0"
     inkscape:pagecheckerboard="0"
     inkscape:deskcolor="#d1d1d1"
     inkscape:document-units="pt"
     showgrid="false"
     inkscape:zoom="0.43457604"
     inkscape:cx="698.3818"
     inkscape:cy="422.25061"
     inkscape:window-width="1920"
     inkscape:window-height="1027"
     inkscape:window-x="0"
     inkscape:window-y="0"
     inkscape:window-maximized="1"
     inkscape:current-layer="svg323" />
  <defs
     id="defs4">
    <style
       type="text/css"
       id="style2">
*{stroke-linecap:butt;stroke-linejoin:round;white-space:pre;}
  </style>
  </defs>
  <g
     id="figure_1"
     transform="matrix(2.2060861,0,0,2.2060861,260.1356,55.532741)">
    <g
       id="patch_1" />
    <g
       id="axes_1">
      <g
         id="patch_2">
        <path
           d="M 54,252 H 388.8 V 34.56 H 54 Z"
           style="fill:#ffffff"
           id="path9" />
      </g>
      <g
         id="matplotlib.axis_1">
        <g
           id="xtick_1">
          <g
             id="line2d_1">
            <path
               clip-path="url(#pcf7a9d1224)"
               d="M 69.218182,252 V 34.56"
               style="fill:none;stroke:#b0b0b0;stroke-width:0.8;stroke-dasharray:0.8, 1.32;stroke-dashoffset:0"
               id="path12" />
          </g>
          <g
             id="line2d_2">
            <defs
               id="defs16">
              <path
                 d="M 0,0 V 3.5"
                 id="m40d27b7fc3"
                 style="stroke:#000000;stroke-width:0.8" />
            </defs>
            <g
               id="g20">
              <use
                 style="stroke:#000000;stroke-width:0.8"
                 x="69.218185"
                 xlink:href="#m40d27b7fc3"
                 y="252"
                 id="use18" />
            </g>
          </g>
          <g
             id="text_1">
            <!-- 0 -->
            <defs
               id="defs24">
              <path
                 d="m 31.78125,66.40625 q -7.609375,0 -11.453125,-7.5 Q 16.5,51.421875 16.5,36.375 q 0,-14.984375 3.828125,-22.484375 3.84375,-7.5 11.453125,-7.5 7.671875,0 11.5,7.5 3.84375,7.5 3.84375,22.484375 0,15.046875 -3.84375,22.53125 -3.828125,7.5 -11.5,7.5 z m 0,7.8125 q 12.265625,0 18.734375,-9.703125 6.46875,-9.6875 6.46875,-28.140625 0,-18.40625 -6.46875,-28.109375 -6.46875,-9.6875 -18.734375,-9.6875 -12.25,0 -18.71875,9.6875 Q 6.59375,17.96875 6.59375,36.375 q 0,18.453125 6.46875,28.140625 6.46875,9.703125 18.71875,9.703125 z"
                 id="DejaVuSans-48" />
            </defs>
            <g
               transform="matrix(0.12,0,0,-0.12,65.400682,268.11813)"
               id="g28">
              <use
                 xlink:href="#DejaVuSans-48"
                 id="use26" />
            </g>
          </g>
        </g>
        <g
           id="xtick_2">
          <g
             id="line2d_3">
            <path
               clip-path="url(#pcf7a9d1224)"
               d="M 116.04336,252 V 34.56"
               style="fill:none;stroke:#b0b0b0;stroke-width:0.8;stroke-dasharray:0.8, 1.32;stroke-dashoffset:0"
               id="path32" />
          </g>
          <g
             id="line2d_4">
            <g
               id="g37">
              <use
                 style="stroke:#000000;stroke-width:0.8"
                 x="116.04336"
                 xlink:href="#m40d27b7fc3"
                 y="252"
                 id="use35" />
            </g>
          </g>
          <g
             id="text_2">
            <!-- 2 -->
            <defs
               id="defs41">
              <path
                 d="M 19.1875,8.296875 H 53.609375 V 0 H 7.328125 v 8.296875 q 5.609375,5.8125 15.296875,15.59375 9.703125,9.796875 12.1875,12.640625 4.734375,5.3125 6.609375,9 1.890625,3.6875 1.890625,7.25 0,5.8125 -4.078125,9.46875 -4.078125,3.671875 -10.625,3.671875 -4.640625,0 -9.796875,-1.609375 -5.140625,-1.609375 -11,-4.890625 v 9.96875 Q 13.765625,71.78125 18.9375,73 q 5.1875,1.21875 9.484375,1.21875 11.328125,0 18.0625,-5.671875 6.734375,-5.65625 6.734375,-15.125 0,-4.5 -1.6875,-8.53125 Q 49.859375,40.875 45.40625,35.40625 44.1875,33.984375 37.640625,27.21875 31.109375,20.453125 19.1875,8.296875 Z"
                 id="DejaVuSans-50" />
            </defs>
            <g
               transform="matrix(0.12,0,0,-0.12,112.22586,268.11813)"
               id="g45">
              <use
                 xlink:href="#DejaVuSans-50"
                 id="use43" />
            </g>
          </g>
        </g>
        <g
           id="xtick_3">
          <g
             id="line2d_5">
            <path
               clip-path="url(#pcf7a9d1224)"
               d="M 162.86853,252 V 34.56"
               style="fill:none;stroke:#b0b0b0;stroke-width:0.8;stroke-dasharray:0.8, 1.32;stroke-dashoffset:0"
               id="path49" />
          </g>
          <g
             id="line2d_6">
            <g
               id="g54">
              <use
                 style="stroke:#000000;stroke-width:0.8"
                 x="162.86853"
                 xlink:href="#m40d27b7fc3"
                 y="252"
                 id="use52" />
            </g>
          </g>
          <g
             id="text_3">
            <!-- 4 -->
            <defs
               id="defs58">
              <path
                 d="M 37.796875,64.3125 12.890625,25.390625 h 24.90625 z m -2.59375,8.59375 h 12.40625 V 25.390625 h 10.40625 V 17.1875 H 47.609375 V 0 h -9.8125 V 17.1875 H 4.890625 v 9.515625 z"
                 id="DejaVuSans-52" />
            </defs>
            <g
               transform="matrix(0.12,0,0,-0.12,159.05103,268.11813)"
               id="g62">
              <use
                 xlink:href="#DejaVuSans-52"
                 id="use60" />
            </g>
          </g>
        </g>
        <g
           id="xtick_4">
          <g
             id="line2d_7">
            <path
               clip-path="url(#pcf7a9d1224)"
               d="M 209.69371,252 V 34.56"
               style="fill:none;stroke:#b0b0b0;stroke-width:0.8;stroke-dasharray:0.8, 1.32;stroke-dashoffset:0"
               id="path66" />
          </g>
          <g
             id="line2d_8">
            <g
               id="g71">
              <use
                 style="stroke:#000000;stroke-width:0.8"
                 x="209.69371"
                 xlink:href="#m40d27b7fc3"
                 y="252"
                 id="use69" />
            </g>
          </g>
          <g
             id="text_4">
            <!-- 6 -->
            <defs
               id="defs75">
              <path
                 d="m 33.015625,40.375 q -6.640625,0 -10.53125,-4.546875 -3.875,-4.53125 -3.875,-12.4375 0,-7.859375 3.875,-12.4375 3.890625,-4.5625 10.53125,-4.5625 6.640625,0 10.515625,4.5625 3.875,4.578125 3.875,12.4375 0,7.90625 -3.875,12.4375 Q 39.65625,40.375 33.015625,40.375 Z M 52.59375,71.296875 V 62.3125 q -3.71875,1.75 -7.5,2.671875 -3.78125,0.9375 -7.5,0.9375 -9.765625,0 -14.921875,-6.59375 -5.140625,-6.59375 -5.875,-19.921875 2.875,4.25 7.21875,6.515625 4.359375,2.265625 9.578125,2.265625 10.984375,0 17.359375,-6.671875 6.375,-6.65625 6.375,-18.125 0,-11.234375 -6.640625,-18.03125 -6.640625,-6.78125 -17.671875,-6.78125 -12.65625,0 -19.34375,9.6875 -6.6875,9.703125 -6.6875,28.109375 0,17.28125 8.203125,27.5625 8.203125,10.28125 22.015625,10.28125 3.71875,0 7.5,-0.734375 3.78125,-0.734375 7.890625,-2.1875 z"
                 id="DejaVuSans-54" />
            </defs>
            <g
               transform="matrix(0.12,0,0,-0.12,205.87621,268.11813)"
               id="g79">
              <use
                 xlink:href="#DejaVuSans-54"
                 id="use77" />
            </g>
          </g>
        </g>
        <g
           id="xtick_5">
          <g
             id="line2d_9">
            <path
               clip-path="url(#pcf7a9d1224)"
               d="M 256.51888,252 V 34.56"
               style="fill:none;stroke:#b0b0b0;stroke-width:0.8;stroke-dasharray:0.8, 1.32;stroke-dashoffset:0"
               id="path83" />
          </g>
          <g
             id="line2d_10">
            <g
               id="g88">
              <use
                 style="stroke:#000000;stroke-width:0.8"
                 x="256.51889"
                 xlink:href="#m40d27b7fc3"
                 y="252"
                 id="use86" />
            </g>
          </g>
          <g
             id="text_5">
            <!-- 8 -->
            <defs
               id="defs92">
              <path
                 d="m 31.78125,34.625 q -7.03125,0 -11.0625,-3.765625 -4.015625,-3.765625 -4.015625,-10.34375 0,-6.59375 4.015625,-10.359375 4.03125,-3.765625 11.0625,-3.765625 7.03125,0 11.078125,3.78125 4.0625,3.796875 4.0625,10.34375 0,6.578125 -4.03125,10.34375 Q 38.875,34.625 31.78125,34.625 Z m -9.859375,4.1875 Q 15.578125,40.375 12.03125,44.71875 8.5,49.078125 8.5,55.328125 q 0,8.734375 6.21875,13.8125 6.234375,5.078125 17.0625,5.078125 10.890625,0 17.09375,-5.078125 6.203125,-5.078125 6.203125,-13.8125 0,-6.25 -3.546875,-10.609375 Q 48,40.375 41.703125,38.8125 q 7.125,-1.65625 11.09375,-6.5 3.984375,-4.828125 3.984375,-11.796875 0,-10.609375 -6.46875,-16.28125 -6.46875,-5.65625 -18.53125,-5.65625 -12.046875,0 -18.53125,5.65625 -6.46875,5.671875 -6.46875,16.28125 0,6.96875 4,11.796875 4.015625,4.84375 11.140625,6.5 z M 18.3125,54.390625 q 0,-5.65625 3.53125,-8.828125 3.546875,-3.171875 9.9375,-3.171875 6.359375,0 9.9375,3.171875 3.59375,3.171875 3.59375,8.828125 0,5.671875 -3.59375,8.84375 -3.578125,3.171875 -9.9375,3.171875 -6.390625,0 -9.9375,-3.171875 Q 18.3125,60.0625 18.3125,54.390625 Z"
                 id="DejaVuSans-56" />
            </defs>
            <g
               transform="matrix(0.12,0,0,-0.12,252.70138,268.11813)"
               id="g96">
              <use
                 xlink:href="#DejaVuSans-56"
                 id="use94" />
            </g>
          </g>
        </g>
        <g
           id="xtick_6">
          <g
             id="line2d_11">
            <path
               clip-path="url(#pcf7a9d1224)"
               d="M 303.34406,252 V 34.56"
               style="fill:none;stroke:#b0b0b0;stroke-width:0.8;stroke-dasharray:0.8, 1.32;stroke-dashoffset:0"
               id="path100" />
          </g>
          <g
             id="line2d_12">
            <g
               id="g105">
              <use
                 style="stroke:#000000;stroke-width:0.8"
                 x="303.34406"
                 xlink:href="#m40d27b7fc3"
                 y="252"
                 id="use103" />
            </g>
          </g>
          <g
             id="text_6">
            <!-- 10 -->
            <defs
               id="defs109">
              <path
                 d="m 12.40625,8.296875 h 16.109375 v 55.625 L 10.984375,60.40625 v 8.984375 l 17.4375,3.515625 H 38.28125 V 8.296875 H 54.390625 V 0 H 12.40625 Z"
                 id="DejaVuSans-49" />
            </defs>
            <g
               transform="matrix(0.12,0,0,-0.12,295.70906,268.11813)"
               id="g115">
              <use
                 xlink:href="#DejaVuSans-49"
                 id="use111" />
              <use
                 x="63.623047"
                 xlink:href="#DejaVuSans-48"
                 id="use113" />
            </g>
          </g>
        </g>
        <g
           id="xtick_7">
          <g
             id="line2d_13">
            <path
               clip-path="url(#pcf7a9d1224)"
               d="M 350.16923,252 V 34.56"
               style="fill:none;stroke:#b0b0b0;stroke-width:0.8;stroke-dasharray:0.8, 1.32;stroke-dashoffset:0"
               id="path119" />
          </g>
          <g
             id="line2d_14">
            <g
               id="g124">
              <use
                 style="stroke:#000000;stroke-width:0.8"
                 x="350.16922"
                 xlink:href="#m40d27b7fc3"
                 y="252"
                 id="use122" />
            </g>
          </g>
          <g
             id="text_7">
            <!-- 12 -->
            <g
               transform="matrix(0.12,0,0,-0.12,342.53423,268.11813)"
               id="g131">
              <use
                 xlink:href="#DejaVuSans-49"
                 id="use127" />
              <use
                 x="63.623047"
                 xlink:href="#DejaVuSans-50"
                 id="use129" />
            </g>
          </g>
        </g>
        <g
           id="text_8">
          <!-- t, c -->
          <defs
             id="defs139">
            <path
               d="M 18.3125,70.21875 V 54.6875 h 18.5 v -6.984375 h -18.5 v -29.6875 q 0,-6.6875 1.828125,-8.59375 1.828125,-1.90625 7.453125,-1.90625 H 36.8125 V 0 H 27.59375 Q 17.1875,0 13.234375,3.875 9.28125,7.765625 9.28125,18.015625 v 29.6875 H 2.6875 V 54.6875 h 6.59375 v 15.53125 z"
               id="DejaVuSans-116" />
            <path
               d="M 11.71875,12.40625 H 22.015625 V 4 l -8,-15.625 H 7.71875 l 4,15.625 z"
               id="DejaVuSans-44" />
            <path
               id="DejaVuSans-32"
               d="" />
            <path
               d="M 48.78125,52.59375 V 44.1875 q -3.8125,2.109375 -7.640625,3.15625 -3.828125,1.046875 -7.734375,1.046875 -8.75,0 -13.59375,-5.546875 -4.828125,-5.53125 -4.828125,-15.546875 0,-10.015625 4.828125,-15.5625 4.84375,-5.53125 13.59375,-5.53125 3.90625,0 7.734375,1.046875 3.828125,1.046875 7.640625,3.15625 v -8.3125 q -3.765625,-1.75 -7.796875,-2.625 -4.015625,-0.890625 -8.5625,-0.890625 -12.359375,0 -19.640625,7.765625 -7.265625,7.765625 -7.265625,20.953125 0,13.375 7.34375,21.03125 Q 20.21875,56 33.015625,56 q 4.140625,0 8.09375,-0.859375 3.953125,-0.84375 7.671875,-2.546875 z"
               id="DejaVuSans-99" />
          </defs>
          <g
             transform="matrix(0.13,0,0,-0.13,211.14625,284.49172)"
             id="g149">
            <use
               xlink:href="#DejaVuSans-116"
               id="use141" />
            <use
               x="39.208984"
               xlink:href="#DejaVuSans-44"
               id="use143" />
            <use
               x="70.996094"
               xlink:href="#DejaVuSans-32"
               id="use145" />
            <use
               x="102.7832"
               xlink:href="#DejaVuSans-99"
               id="use147" />
          </g>
        </g>
      </g>
      <g
         id="matplotlib.axis_2">
        <g
           id="ytick_1">
          <g
             id="line2d_15">
            <path
               clip-path="url(#pcf7a9d1224)"
               d="M 54,245.71431 H 388.8"
               style="fill:none;stroke:#b0b0b0;stroke-width:0.8;stroke-dasharray:0.8, 1.32;stroke-dashoffset:0"
               id="path153" />
          </g>
          <g
             id="line2d_16">
            <defs
               id="defs157">
              <path
                 d="M 0,0 H -3.5"
                 id="m3a7b092417"
                 style="stroke:#000000;stroke-width:0.8" />
            </defs>
            <g
               id="g161">
              <use
                 style="stroke:#000000;stroke-width:0.8"
                 x="54"
                 xlink:href="#m3a7b092417"
                 y="245.71431"
                 id="use159" />
            </g>
          </g>
          <g
             id="text_9">
            <!-- −20 -->
            <defs
               id="defs165">
              <path
                 d="M 10.59375,35.5 H 73.1875 V 27.203125 H 10.59375 Z"
                 id="DejaVuSans-8722" />
            </defs>
            <g
               transform="matrix(0.13,0,0,-0.13,19.563906,250.65329)"
               id="g173">
              <use
                 xlink:href="#DejaVuSans-8722"
                 id="use167" />
              <use
                 x="83.789062"
                 xlink:href="#DejaVuSans-50"
                 id="use169" />
              <use
                 x="147.41211"
                 xlink:href="#DejaVuSans-48"
                 id="use171" />
            </g>
          </g>
        </g>
        <g
           id="ytick_2">
          <g
             id="line2d_17">
            <path
               clip-path="url(#pcf7a9d1224)"
               d="M 54,195.39664 H 388.8"
               style="fill:none;stroke:#b0b0b0;stroke-width:0.8;stroke-dasharray:0.8, 1.32;stroke-dashoffset:0"
               id="path177" />
          </g>
          <g
             id="line2d_18">
            <g
               id="g182">
              <use
                 style="stroke:#000000;stroke-width:0.8"
                 x="54"
                 xlink:href="#m3a7b092417"
                 y="195.39664"
                 id="use180" />
            </g>
          </g>
          <g
             id="text_10">
            <!-- −10 -->
            <g
               transform="matrix(0.13,0,0,-0.13,19.563906,200.33562)"
               id="g191">
              <use
                 xlink:href="#DejaVuSans-8722"
                 id="use185" />
              <use
                 x="83.789062"
                 xlink:href="#DejaVuSans-49"
                 id="use187" />
              <use
                 x="147.41211"
                 xlink:href="#DejaVuSans-48"
                 id="use189" />
            </g>
          </g>
        </g>
        <g
           id="ytick_3">
          <g
             id="line2d_19">
            <path
               clip-path="url(#pcf7a9d1224)"
               d="M 54,145.07897 H 388.8"
               style="fill:none;stroke:#b0b0b0;stroke-width:0.8;stroke-dasharray:0.8, 1.32;stroke-dashoffset:0"
               id="path195" />
          </g>
          <g
             id="line2d_20">
            <g
               id="g200">
              <use
                 style="stroke:#000000;stroke-width:0.8"
                 x="54"
                 xlink:href="#m3a7b092417"
                 y="145.07896"
                 id="use198" />
            </g>
          </g>
          <g
             id="text_11">
            <!-- 0 -->
            <g
               transform="matrix(0.13,0,0,-0.13,38.72875,150.01796)"
               id="g205">
              <use
                 xlink:href="#DejaVuSans-48"
                 id="use203" />
            </g>
          </g>
        </g>
        <g
           id="ytick_4">
          <g
             id="line2d_21">
            <path
               clip-path="url(#pcf7a9d1224)"
               d="M 54,94.761304 H 388.8"
               style="fill:none;stroke:#b0b0b0;stroke-width:0.8;stroke-dasharray:0.8, 1.32;stroke-dashoffset:0"
               id="path209" />
          </g>
          <g
             id="line2d_22">
            <g
               id="g214">
              <use
                 style="stroke:#000000;stroke-width:0.8"
                 x="54"
                 xlink:href="#m3a7b092417"
                 y="94.761307"
                 id="use212" />
            </g>
          </g>
          <g
             id="text_12">
            <!-- 10 -->
            <g
               transform="matrix(0.13,0,0,-0.13,30.4575,99.700288)"
               id="g221">
              <use
                 xlink:href="#DejaVuSans-49"
                 id="use217" />
              <use
                 x="63.623047"
                 xlink:href="#DejaVuSans-48"
                 id="use219" />
            </g>
          </g>
        </g>
        <g
           id="ytick_5">
          <g
             id="line2d_23">
            <path
               clip-path="url(#pcf7a9d1224)"
               d="M 54,44.443636 H 388.8"
               style="fill:none;stroke:#b0b0b0;stroke-width:0.8;stroke-dasharray:0.8, 1.32;stroke-dashoffset:0"
               id="path225" />
          </g>
          <g
             id="line2d_24">
            <g
               id="g230">
              <use
                 style="stroke:#000000;stroke-width:0.8"
                 x="54"
                 xlink:href="#m3a7b092417"
                 y="44.443638"
                 id="use228" />
            </g>
          </g>
          <g
             id="text_13">
            <!-- 20 -->
            <g
               transform="matrix(0.13,0,0,-0.13,30.4575,49.382621)"
               id="g237">
              <use
                 xlink:href="#DejaVuSans-50"
                 id="use233" />
              <use
                 x="63.623047"
                 xlink:href="#DejaVuSans-48"
                 id="use235" />
            </g>
          </g>
        </g>
        <g
           id="text_14">
          <!-- Угол поворота, градус -->
          <defs
             id="defs253">
            <path
               d="M 31.984375,8.84375 Q 30.953125,6.390625 29.390625,4.546875 25.53125,0 13.28125,0 H 9.515625 v 8.296875 h 3.078125 q 5.8125,0 8.0625,1.328125 1.359375,0.828125 2.25,2.875 l 2.1875,5.171875 L 1.703125,72.90625 H 12.3125 L 30.421875,30.125 48.640625,72.90625 h 10.59375 z"
               id="DejaVuSans-1059" />
            <path
               d="M 9.078125,0 V 54.6875 H 47.65625 V 47.515625 H 18.109375 V 0 Z"
               id="DejaVuSans-1075" />
            <path
               d="m 30.609375,48.390625 q -7.21875,0 -11.421875,-5.640625 -4.203125,-5.640625 -4.203125,-15.453125 0,-9.8125 4.171875,-15.453125 4.1875,-5.640625 11.453125,-5.640625 7.1875,0 11.375,5.65625 4.203125,5.671875 4.203125,15.4375 0,9.71875 -4.203125,15.40625 -4.1875,5.6875 -11.375,5.6875 z m 0,7.609375 q 11.71875,0 18.40625,-7.625 6.703125,-7.609375 6.703125,-21.078125 0,-13.421875 -6.703125,-21.078125 -6.6875,-7.640625 -18.40625,-7.640625 -11.765625,0 -18.4375,7.640625 -6.65625,7.65625 -6.65625,21.078125 0,13.46875 6.65625,21.078125 Q 18.84375,56 30.609375,56 Z"
               id="DejaVuSans-1086" />
            <path
               d="m 3.71875,0 v 7.46875 q 8.875,1.375 11.609375,7.515625 3.328125,8.65625 3.328125,30.765625 v 8.9375 H 55.609375 V 0 H 46.625 V 47.515625 H 27.640625 V 42.09375 Q 27.640625,21 23.34375,11.53125 18.75,1.421875 3.71875,0 Z"
               id="DejaVuSans-1083" />
            <path
               d="M 56.296875,54.6875 V 0 h -9.03125 V 47.515625 H 18.109375 V 0 h -9.03125 v 54.6875 z"
               id="DejaVuSans-1087" />
            <path
               d="M 18.0625,25.203125 V 7.171875 h 12.796875 q 6.15625,0 9.375,2.3125 3.21875,2.328125 3.21875,6.734375 0,4.390625 -3.21875,6.6875 -3.21875,2.296875 -9.375,2.296875 z m 0,22.3125 V 32.375 h 11.828125 q 5.078125,0 8.296875,2.015625 3.21875,2.03125 3.21875,5.65625 0,3.609375 -3.21875,5.53125 -3.21875,1.9375 -8.296875,1.9375 z M 9.078125,54.6875 H 30.46875 q 9.625,0 14.796875,-3.515625 Q 50.4375,47.65625 50.4375,41.15625 q 0,-5.015625 -2.640625,-7.984375 -2.625,-2.953125 -7.8125,-3.671875 6.203125,-1.171875 9.625,-4.890625 Q 53.03125,20.90625 53.03125,15.328125 53.03125,8.015625 47.390625,4 41.75,0 31.296875,0 H 9.078125 Z"
               id="DejaVuSans-1074" />
            <path
               d="m 18.109375,8.203125 v -29 H 9.078125 V 54.6875 h 9.03125 v -8.296875 q 2.84375,4.875 7.15625,7.234375 Q 29.59375,56 35.59375,56 q 9.96875,0 16.1875,-7.90625 6.234375,-7.90625 6.234375,-20.796875 0,-12.890625 -6.234375,-20.8125 -6.21875,-7.90625 -16.1875,-7.90625 -6,0 -10.328125,2.375 -4.3125,2.375 -7.15625,7.25 z M 48.6875,27.296875 q 0,9.90625 -4.078125,15.546875 -4.078125,5.640625 -11.203125,5.640625 -7.140625,0 -11.21875,-5.640625 -4.078125,-5.640625 -4.078125,-15.546875 0,-9.90625 4.078125,-15.546875 4.078125,-5.640625 11.21875,-5.640625 7.125,0 11.203125,5.640625 4.078125,5.640625 4.078125,15.546875 z"
               id="DejaVuSans-1088" />
            <path
               d="M 2.9375,54.6875 H 55.328125 V 47.515625 H 33.546875 V 0 h -8.84375 V 47.515625 H 2.9375 Z"
               id="DejaVuSans-1090" />
            <path
               d="m 34.28125,27.484375 q -10.890625,0 -15.09375,-2.484375 -4.203125,-2.484375 -4.203125,-8.5 0,-4.78125 3.15625,-7.59375 3.15625,-2.796875 8.5625,-2.796875 7.484375,0 12,5.296875 4.515625,5.296875 4.515625,14.078125 v 2 z m 17.921875,3.71875 V 0 H 43.21875 v 8.296875 q -3.078125,-4.96875 -7.671875,-7.34375 -4.59375,-2.375 -11.234375,-2.375 -8.390625,0 -13.359375,4.71875 Q 6,8.015625 6,15.921875 q 0,9.21875 6.171875,13.90625 6.1875,4.6875 18.4375,4.6875 H 43.21875 v 0.890625 q 0,6.203125 -4.078125,9.59375 -4.078125,3.390625 -11.453125,3.390625 -4.6875,0 -9.140625,-1.125 -4.4375,-1.125 -8.53125,-3.375 v 8.3125 q 4.921875,1.90625 9.5625,2.84375 Q 24.21875,56 28.609375,56 q 11.875,0 17.734375,-6.15625 5.859375,-6.140625 5.859375,-18.640625 z"
               id="DejaVuSans-1072" />
            <path
               d="m 21.625,7.171875 h 26.078125 v 40.34375 H 28.8125 v -6.84375 Q 28.8125,20.5625 23.046875,9.8125 Z m -13.03125,0 q 4.4375,1.953125 6.390625,6.109375 4.796875,10.296875 4.796875,31.0625 V 54.6875 H 56.734375 V 7.171875 h 7.1875 V -13.8125 h -7.1875 V 0 H 12.40625 V -13.8125 H 5.21875 V 7.171875 Z"
               id="DejaVuSans-1076" />
            <path
               d="M 32.171875,-5.078125 Q 28.375,-14.84375 24.75,-17.8125 q -3.609375,-2.984375 -9.65625,-2.984375 h -7.1875 v 7.515625 h 5.28125 q 3.703125,0 5.75,1.765625 2.0625,1.75 4.546875,8.296875 L 25.09375,0.875 2.984375,54.6875 H 12.5 L 29.59375,11.921875 46.6875,54.6875 h 9.515625 z"
               id="DejaVuSans-1091" />
            <path
               d="M 48.78125,52.59375 V 44.1875 q -3.8125,2.109375 -7.640625,3.15625 -3.828125,1.046875 -7.734375,1.046875 -8.75,0 -13.59375,-5.546875 -4.828125,-5.53125 -4.828125,-15.546875 0,-10.015625 4.828125,-15.5625 4.84375,-5.53125 13.59375,-5.53125 3.90625,0 7.734375,1.046875 3.828125,1.046875 7.640625,3.15625 v -8.3125 q -3.765625,-1.75 -7.796875,-2.625 -4.015625,-0.890625 -8.5625,-0.890625 -12.359375,0 -19.640625,7.765625 -7.265625,7.765625 -7.265625,20.953125 0,13.375 7.34375,21.03125 Q 20.21875,56 33.015625,56 q 4.140625,0 8.09375,-0.859375 3.953125,-0.84375 7.671875,-2.546875 z"
               id="DejaVuSans-1089" />
          </defs>
          <g
             transform="matrix(0,-0.13,-0.13,0,12.860312,220.33445)"
             id="g297">
            <use
               xlink:href="#DejaVuSans-1059"
               id="use255" />
            <use
               x="60.9375"
               xlink:href="#DejaVuSans-1075"
               id="use257" />
            <use
               x="113.47656"
               xlink:href="#DejaVuSans-1086"
               id="use259" />
            <use
               x="174.6582"
               xlink:href="#DejaVuSans-1083"
               id="use261" />
            <use
               x="238.57422"
               xlink:href="#DejaVuSans-32"
               id="use263" />
            <use
               x="270.36133"
               xlink:href="#DejaVuSans-1087"
               id="use265" />
            <use
               x="335.74219"
               xlink:href="#DejaVuSans-1086"
               id="use267" />
            <use
               x="396.92383"
               xlink:href="#DejaVuSans-1074"
               id="use269" />
            <use
               x="455.85938"
               xlink:href="#DejaVuSans-1086"
               id="use271" />
            <use
               x="517.04102"
               xlink:href="#DejaVuSans-1088"
               id="use273" />
            <use
               x="580.51758"
               xlink:href="#DejaVuSans-1086"
               id="use275" />
            <use
               x="641.69922"
               xlink:href="#DejaVuSans-1090"
               id="use277" />
            <use
               x="699.95117"
               xlink:href="#DejaVuSans-1072"
               id="use279" />
            <use
               x="761.23047"
               xlink:href="#DejaVuSans-44"
               id="use281" />
            <use
               x="793.01758"
               xlink:href="#DejaVuSans-32"
               id="use283" />
            <use
               x="824.80469"
               xlink:href="#DejaVuSans-1075"
               id="use285" />
            <use
               x="877.34375"
               xlink:href="#DejaVuSans-1088"
               id="use287" />
            <use
               x="940.82031"
               xlink:href="#DejaVuSans-1072"
               id="use289" />
            <use
               x="1002.0996"
               xlink:href="#DejaVuSans-1076"
               id="use291" />
            <use
               x="1071.2402"
               xlink:href="#DejaVuSans-1091"
               id="use293" />
            <use
               x="1130.4199"
               xlink:href="#DejaVuSans-1089"
               id="use295" />
          </g>
        </g>
      </g>
      <g
         id="line2d_25">
        <path
           clip-path="url(#pcf7a9d1224)"
           d="m 69.218182,44.443636 0.139519,0.101328 0.654142,3.156354 0.654239,7.449436 0.656367,11.461932 0.663892,15.140113 1.376946,39.617861 2.428965,75.08973 0.77358,19.07674 0.77358,14.50726 0.678365,8.24718 0.80763,3.81069 0.120373,-0.009 0.364384,-0.91324 0.657833,-4.96607 0.658094,-9.03667 0.662679,-12.80612 1.363451,-35.40894 3.167191,-92.629886 0.741698,-15.819789 0.741697,-11.383173 0.741697,-6.302655 0.46084,-1.188869 0.08966,0.0152 0.369083,0.879808 0.661641,4.819071 0.6619,8.78455 0.666556,12.452407 1.372116,34.421066 2.347481,68.40493 0.840033,21.11334 0.74256,15.0197 0.742559,10.6923 0.74256,5.75727 0.436861,0.9383 0.06927,-0.0198 0.346324,-0.76737 0.665708,-4.55829 0.665925,-8.42593 0.670489,-12.00072 1.38033,-33.2699 2.36605,-66.23117 0.84142,-20.232352 0.74532,-14.363462 0.74533,-10.145286 0.74532,-5.344825 0.42422,-0.770092 0.1395,0.10782 0.66994,2.922588 0.67007,6.779366 0.67246,10.365325 0.68088,13.632895 1.41745,35.477623 1.59409,43.33241 0.96384,23.25884 0.76744,14.9996 0.76744,10.85973 0.86584,6.46312 0.40922,0.76786 0.0675,-0.0163 0.33728,-0.66513 0.67475,-4.20963 0.67495,-7.8682 0.67956,-11.24163 1.40017,-31.1981 2.41697,-62.04754 0.83846,-18.178061 0.74897,-12.835684 0.74898,-8.835313 0.85703,-4.553088 0.26226,-0.149134 0.34153,0.659553 0.67978,4.112368 0.67999,7.659839 0.68476,10.925183 1.41198,30.260787 2.45049,60.01871 0.8343,17.02404 0.74997,11.97173 0.74996,8.08008 0.90268,3.91352 0.14687,0.0105 0.35928,-0.68783 0.68519,-4.065 0.68542,-7.49659 0.69047,-10.64855 1.42529,-29.38379 2.49083,-58.0213 0.82847,-15.790251 0.82847,-11.978008 0.71264,-6.587901 0.8403,-2.856473 0.0788,0.01343 0.33758,0.581014 0.69099,3.796413 0.69117,7.127029 0.69607,10.183056 1.43694,28.195701 2.51731,55.74475 0.83124,14.9511 0.83125,11.255 0.71746,6.10832 0.81152,2.44717 0.074,-0.0192 0.37009,-0.67734 0.69726,-3.86457 0.69754,-7.06778 0.70299,-9.99769 1.45389,-27.45523 2.57522,-53.80643 0.82169,-13.531887 0.82169,-9.963018 0.93247,-6.102308 0.4637,-0.795926 0.0739,0.01285 0.3693,0.612685 0.70403,3.65941 0.70426,6.754127 0.70971,9.580007 1.46849,26.33421 2.61356,51.5361 0.82268,12.59431 0.82269,9.14338 0.91101,5.32175 0.42189,0.61699 0.0681,-0.0116 0.34078,-0.49916 0.71134,-3.37507 0.7115,-6.36596 0.71677,-9.09344 1.48306,-25.09769 2.64692,-49.15687 0.82733,-11.8009 0.82732,-8.464602 0.73134,-4.209797 0.39505,-0.898868 0.22215,-0.07258 0.3409,0.467926 0.71931,3.224347 0.71945,6.099101 0.72483,8.714453 1.50102,24.0265 1.67772,30.32062 1.02,16.54386 0.82818,10.79016 0.82818,7.56636 0.73696,3.57336 0.44722,0.61688 0.0694,-0.0104 0.34689,-0.45501 0.72799,-3.10518 0.72813,-5.85894 0.73374,-8.35705 1.52122,-22.98119 1.7088,-28.88724 1.04849,-15.64863 0.82851,-9.73045 0.82851,-6.620966 0.74296,-2.893747 0.3521,-0.307165 0.15066,0.07496 0.73739,2.060648 0.73753,4.76441 0.74061,7.22922 0.75233,9.42023 1.58686,24.08233 1.89423,28.61879 0.86384,10.20743 0.86383,7.22555 0.75793,3.42704 0.48667,0.65298 0.0803,-0.0101 0.35427,-0.41688 0.74796,-2.83984 0.74809,-5.34539 0.75418,-7.60353 1.56753,-20.79934 1.78136,-25.91212 0.9679,-12.14048 0.83877,-8.1635 0.83877,-5.32737 0.93704,-2.11906 0.0678,0.01 0.33917,0.35722 0.75953,2.63045 0.75962,5.01379 0.76574,7.15504 1.59282,19.5804 1.81905,24.3212 0.96817,11.00035 0.84507,7.33122 1.06851,5.34706 0.19417,0.44945 0.45368,0.3977 0.036,-0.007 0.35983,-0.36227 0.77247,-2.53264 0.77256,-4.77974 0.77916,-6.78895 1.62408,-18.47342 1.87246,-22.7659 0.96019,-9.67046 0.8491,-6.36135 1.05991,-4.29668 0.47793,-0.47688 0.0718,0.008 0.35926,0.32816 0.787,2.3618 0.78706,4.47482 0.79393,6.35529 1.6575,17.24743 1.92769,21.11679 0.95789,8.47205 0.85617,5.47472 0.85618,3.04633 0.53258,0.5569 0.0818,-0.007 0.35954,-0.29455 0.80354,-2.1871 0.80355,-4.16115 0.81073,-5.9084 1.69569,-15.98307 1.99281,-19.41265 0.95644,-7.28506 0.95645,-4.94483 0.93887,-2.11277 0.27818,-0.0688 0.35939,0.26083 0.82259,2.00717 0.82259,3.83672 0.83008,5.44545 1.73996,14.67293 2.07102,17.64213 0.95653,6.11174 0.95653,3.9383 0.96472,1.38255 0.0719,-0.006 0.35947,-0.22845 0.84491,-1.82394 0.84492,-3.50193 0.85282,-4.96553 1.79234,-13.31137 0.99648,-7.74768 1.17123,-8.04154 0.95912,-4.9494 0.95912,-2.94746 0.37811,-0.54136 0.38922,-0.17435 0.15221,0.0327 0.87162,1.16062 0.8717,2.73051 0.87609,4.10308 1.83003,11.39285 1.00834,6.72971 1.16924,7.00489 1.0057,4.59988 1.00571,2.75377 0.39293,0.50293 0.4537,0.16117 0.36001,-0.16194 0.90471,-1.4293 0.90471,-2.77721 0.91372,-3.92636 1.93464,-10.36875 1.10008,-5.88484 1.14878,-5.10697 0.9895,-3.00544 0.98949,-1.38009 0.34242,-0.0682 0.33669,0.11305 0.94731,1.18031 0.94731,2.34878 0.95663,3.32913 3.21016,13.57809 1.15364,3.77091 1.29502,2.39983 0.6464,0.33339 0.44621,-0.0908 1.00604,-0.97044 1.00605,-1.93253 1.01688,-2.71873 3.48376,-10.71587 1.15438,-2.37371 1.37122,-1.18667 0.55634,0.0512 1.09729,0.72243 1.09728,1.44961 1.11046,2.01772 2.4198,4.99203 1.53102,2.4706 1.18254,1.04529 0.79622,0.18363 0.35945,-0.0275 1.28435,-0.42031 1.28436,-0.85565 4.25583,-3.75868 1.78554,-0.77591 1.61826,-0.0482 34.12488,0.0176 v 0"
           style="fill:none;stroke:#1f77b4;stroke-width:1.5;stroke-linecap:square"
           id="path301" />
      </g>
      <g
         id="patch_3">
        <path
           d="M 54,252 V 34.56"
           style="fill:none;stroke:#000000;stroke-width:0.8;stroke-linecap:square;stroke-linejoin:miter"
           id="path304" />
      </g>
      <g
         id="patch_4">
        <path
           d="M 388.8,252 V 34.56"
           style="fill:none;stroke:#000000;stroke-width:0.8;stroke-linecap:square;stroke-linejoin:miter"
           id="path307" />
      </g>
      <g
         id="patch_5">
        <path
           d="M 54,252 H 388.8"
           style="fill:none;stroke:#000000;stroke-width:0.8;stroke-linecap:square;stroke-linejoin:miter"
           id="path310" />
      </g>
      <g
         id="patch_6">
        <path
           d="M 54,34.56 H 388.8"
           style="fill:none;stroke:#000000;stroke-width:0.8;stroke-linecap:square;stroke-linejoin:miter"
           id="path313" />
      </g>
    </g>
  </g>
  <defs
     id="defs321">
    <clipPath
       id="pcf7a9d1224">
      <rect
         height="217.44"
         width="334.79999"
         x="54"
         y="34.560001"
         id="rect318" />
    </clipPath>
  </defs>
</svg>
